<svg version="1.1" id="Layer_1" xmlns="http://www.w3.org/2000/svg" xmlns:xlink="http://www.w3.org/1999/xlink" x="0px" y="0px"
	 width="100%" viewBox="0 0 900 900" enable-background="new 0 0 900 900" xml:space="preserve">
<path fill="#57068C" opacity="1.000000" stroke="none" 
	d="
M529.000000,901.000000 
	C352.666656,901.000000 176.833328,901.000000 1.000000,901.000000 
	C1.000000,601.000000 1.000000,301.000000 1.000000,1.000000 
	C301.000000,1.000000 601.000000,1.000000 901.000000,1.000000 
	C901.000000,301.000000 901.000000,601.000000 901.000000,901.000000 
	C777.166687,901.000000 653.333313,901.000000 529.000000,901.000000 
M671.863586,571.626099 
	C672.241516,569.916077 672.949707,568.206116 672.950317,566.495972 
	C673.001282,423.820282 673.002014,281.144592 672.947815,138.468903 
	C672.947083,136.567352 672.200378,134.666077 671.207703,132.345612 
	C668.462219,131.936569 665.716797,131.170746 662.971191,131.169617 
	C521.291931,131.111465 379.612610,131.118073 237.933319,131.121185 
	C236.435684,131.121216 234.874344,130.918182 233.463913,131.281021 
	C232.595703,131.504364 231.958008,132.623749 231.226944,134.235229 
	C231.235703,276.074707 231.245102,417.914185 231.249619,559.753662 
	C231.249741,563.414978 231.196533,567.076233 231.196945,571.558350 
	C233.009598,572.033386 234.822067,572.923523 236.634949,572.924316 
	C379.560516,572.989075 522.486145,572.988342 665.411743,572.940918 
	C667.334412,572.940247 669.256897,572.283447 671.863586,571.626099 
M574.694092,621.166199 
	C565.696411,621.160095 556.695923,621.282837 547.702515,621.083313 
	C544.176819,621.005127 543.088684,622.208923 543.180481,625.700256 
	C543.399414,634.025696 543.159363,642.362000 543.254761,650.692139 
	C543.510315,673.002502 543.010864,695.364319 544.406311,717.605591 
	C545.563843,736.054077 553.929749,751.385864 570.549500,761.109253 
	C582.923218,768.348633 596.532837,769.925842 610.526428,769.499695 
	C648.571594,768.341125 669.004211,745.783386 670.515869,711.478943 
	C671.776245,682.876282 670.893188,654.181641 671.143677,625.529297 
	C671.175903,621.837646 669.860840,621.007080 666.510864,621.091309 
	C659.017517,621.279602 651.507202,621.363831 644.021179,621.060913 
	C639.615967,620.882690 637.998047,621.946167 638.046875,626.805664 
	C638.309753,652.963379 638.194519,679.125305 638.137695,705.285583 
	C638.130798,708.434509 637.887268,711.612793 637.413635,714.725769 
	C635.124939,729.765442 624.553162,738.732727 608.321899,739.550293 
	C593.131775,740.315430 581.333618,732.078918 577.784851,717.748169 
	C576.596680,712.950073 576.013306,707.900940 575.920959,702.952271 
	C575.672180,689.626770 575.798218,676.293396 575.848816,662.963440 
	C575.899353,649.644470 576.038635,636.325867 576.571411,623.707947 
	C576.717529,625.684937 576.988037,627.661743 576.990601,629.638916 
	C577.020508,652.423218 577.009705,675.207581 577.009705,697.991882 
	C577.009644,700.446167 577.009766,702.900391 577.009766,706.073608 
	C577.626343,705.115234 577.917664,704.873657 577.918030,704.631775 
	C577.958130,678.023438 578.008850,651.414978 577.893433,624.807190 
	C577.888123,623.577393 576.383850,622.354187 574.694092,621.166199 
M362.063843,766.816223 
	C362.353363,764.887634 362.889160,762.959778 362.894562,761.030396 
	C362.954834,739.555054 362.933716,718.079529 362.933411,696.604004 
	C362.933075,672.964355 362.877472,649.324402 362.983856,625.685242 
	C363.001556,621.752136 361.876556,619.846130 357.600739,619.963074 
	C349.782166,620.176880 341.951965,619.943115 334.130646,620.098572 
	C332.694641,620.127075 331.277740,621.115601 329.723267,622.633728 
	C329.723267,651.253052 329.723267,679.872375 329.723267,708.491638 
	C327.320740,707.089844 326.274506,705.463196 325.106232,703.929504 
	C304.940552,677.455933 284.808167,650.956421 264.474182,624.612610 
	C263.112244,622.848083 260.248322,621.443604 257.998474,621.311523 
	C250.858917,620.892273 243.672028,621.348022 236.517975,621.079102 
	C232.578903,620.930969 231.485764,622.169495 231.498779,626.164124 
	C231.648483,672.147522 231.595612,718.131531 231.609848,764.115417 
	C231.610138,765.054932 231.768890,765.994385 231.863190,767.038940 
	C242.616745,767.038940 253.021759,767.038940 264.075531,767.038940 
	C264.075531,737.002686 264.075531,707.323486 264.075531,677.644287 
	C264.478394,677.490295 264.881256,677.336304 265.284119,677.182312 
	C266.872040,679.187805 268.492645,681.168335 270.042938,683.202576 
	C290.725159,710.340759 311.372833,737.505554 332.145416,764.574463 
	C333.185974,765.930359 335.269501,767.226196 336.898499,767.265625 
	C345.048645,767.462708 353.209167,767.231079 362.063843,766.816223 
M509.495361,621.142334 
	C504.332611,621.143433 499.154816,621.385010 494.012177,621.064087 
	C490.375610,620.837036 488.270844,622.115051 486.437836,625.225159 
	C477.577881,640.258118 468.525299,655.177856 459.500671,670.113342 
	C457.826843,672.883423 455.967804,675.541687 453.924042,678.664429 
	C452.690887,676.779297 451.840240,675.579102 451.091248,674.318542 
	C441.412292,658.029541 431.676849,641.773254 422.142456,625.399963 
	C420.341522,622.307251 418.362823,620.919250 414.660980,621.062500 
	C407.011597,621.358582 399.342529,621.145081 391.681549,621.142029 
	C388.606903,621.140808 385.532288,621.141785 381.670319,621.141785 
	C382.633972,622.951538 383.015900,623.796387 383.506927,624.572327 
	C400.481598,651.396118 417.536591,678.169739 434.343719,705.098083 
	C436.062225,707.851501 437.054382,711.515198 437.104736,714.776306 
	C437.371796,732.074036 437.230225,749.378113 437.230225,767.031128 
	C448.263123,767.031128 458.962189,767.031128 470.019684,767.031128 
	C470.019684,749.360718 469.863739,732.059692 470.152405,714.766113 
	C470.209503,711.346741 471.255676,707.502380 473.067627,704.622986 
	C488.825653,679.581055 504.868561,654.718567 520.806946,629.790039 
	C522.437439,627.239868 523.938110,624.606689 526.022217,621.142395 
	C520.080627,621.142395 515.286011,621.142395 509.495361,621.142334 
M229.997559,346.500000 
	C229.997559,275.960419 229.997559,205.420868 229.997559,134.881287 
	C229.761124,134.882217 229.524673,134.883148 229.288239,134.884079 
	C229.288239,280.024597 229.288239,425.165131 229.288239,570.305664 
	C229.524673,570.305786 229.761108,570.305908 229.997543,570.306030 
	C229.997543,496.037354 229.997543,421.768677 229.997559,346.500000 
z"/>
<path fill="#FEFEFE" opacity="1.000000" stroke="none" 
	d="
M231.168182,570.737549 
	C231.196533,567.076233 231.249741,563.414978 231.249619,559.753662 
	C231.245102,417.914185 231.235703,276.074707 231.657288,133.641510 
	C233.412292,132.963257 234.736938,132.804779 236.061584,132.804657 
	C379.042786,132.791199 522.023987,132.784683 665.005188,132.840652 
	C666.888672,132.841385 668.771851,133.643936 670.584656,134.531769 
	C670.493530,136.156311 670.454956,137.321350 670.454956,138.486374 
	C670.453430,279.367920 670.453796,420.249481 670.461670,561.131042 
	C670.461792,564.291992 670.549927,567.453003 670.192444,570.829834 
	C667.993591,571.260132 666.199402,571.661987 664.405029,571.662354 
	C521.743164,571.690979 379.081238,571.691650 236.419373,571.648376 
	C234.668884,571.647888 232.918579,571.054260 231.168182,570.737549 
M478.831055,385.385437 
	C478.831055,380.324921 478.831055,375.264435 478.831055,369.772919 
	C458.452881,369.772919 438.888000,369.757050 419.323456,369.828522 
	C418.504517,369.831512 416.965485,370.675415 416.980499,371.082642 
	C417.179169,376.472626 417.596436,381.854584 418.704895,387.629517 
	C437.266541,387.653473 455.828339,387.710114 474.389587,387.635437 
	C475.781250,387.629822 477.169128,386.685760 478.831055,385.385437 
M439.373810,243.849777 
	C429.079224,255.195282 418.604858,266.416260 411.594849,280.253601 
	C404.361877,294.531067 400.593597,309.275055 407.009552,324.902191 
	C413.767853,341.363129 427.223846,350.803436 442.645660,358.028595 
	C443.125275,358.253296 443.802063,358.057098 444.110474,358.057098 
	C442.273773,351.843628 439.957397,345.910065 438.804871,339.758392 
	C435.064758,319.795990 441.015778,302.064758 453.182007,286.503357 
	C460.428558,277.234589 469.132660,269.117371 476.815796,260.168488 
	C478.505066,258.200958 479.752869,254.703033 479.310699,252.251297 
	C477.102936,240.009552 474.463654,227.833328 471.537994,215.740051 
	C470.529419,211.571136 468.254150,207.708649 466.078979,202.577286 
	C460.150909,219.170349 450.012360,231.254944 439.373810,243.849777 
M490.896027,308.393097 
	C472.536896,321.150909 462.742615,339.003387 459.106567,360.761139 
	C478.172546,364.120544 502.557709,358.177460 517.085327,344.330536 
	C529.175049,332.807251 536.732849,318.757721 540.539062,302.822815 
	C543.282898,291.335449 544.617798,279.511536 546.581177,267.837769 
	C544.731812,267.712311 544.243469,267.863159 544.017700,268.193481 
	C535.097534,281.244293 523.367615,290.925964 509.209412,297.900940 
	C503.123016,300.899353 497.383789,304.602417 490.896027,308.393097 
M463.094666,283.579315 
	C461.152435,286.071442 459.122955,288.500885 457.281738,291.065521 
	C441.720490,312.740631 441.062805,335.024597 452.297699,357.414642 
	C452.697998,355.976868 453.097565,354.955200 453.259308,353.897217 
	C454.993256,342.553864 458.825867,332.065613 465.560486,322.675232 
	C475.483459,308.839142 489.352753,299.913971 504.405090,293.165894 
	C516.044739,287.947754 521.783325,280.510071 519.926758,267.728027 
	C519.903076,267.565002 519.930298,267.395264 519.921814,267.229279 
	C519.268311,254.485092 515.575928,242.634308 509.495636,230.449387 
	C508.402740,232.385101 507.747162,233.466904 507.166260,234.587402 
	C501.547028,245.425735 494.852539,255.257782 485.040741,263.008820 
	C477.381897,269.059082 470.672668,276.311371 463.094666,283.579315 
M374.288727,286.786774 
	C369.459686,299.947968 367.964172,313.346252 372.301086,326.887115 
	C378.580170,346.492035 393.363831,355.996155 412.627960,359.643707 
	C418.476013,360.750977 424.481079,361.029175 430.414215,361.687134 
	C426.949738,357.853577 423.198883,355.447113 419.705200,352.712189 
	C404.825592,341.064056 396.126923,326.192596 396.941223,306.836639 
	C397.477692,294.085266 402.222992,282.646851 408.767517,271.785431 
	C410.116943,269.545898 410.722961,265.932587 409.942627,263.509216 
	C407.610382,256.266205 404.454163,249.285294 401.522430,242.242523 
	C401.150726,241.349625 400.199829,240.697815 399.128784,239.499786 
	C395.705292,253.718567 388.052032,264.957825 380.302734,276.176849 
	C378.146088,279.299225 376.538940,282.801147 374.288727,286.786774 
M463.850128,412.762054 
	C464.553284,407.190979 465.256470,401.619904 466.026642,395.518005 
	C453.874603,395.518005 442.206360,395.518005 429.870453,395.518005 
	C430.450256,400.572418 431.041565,405.462372 431.568115,410.359283 
	C435.211914,444.249634 438.776154,478.148987 442.640167,512.014160 
	C442.873413,514.058533 445.213989,517.108032 447.005341,517.453552 
	C450.134552,518.057068 451.011963,515.090515 451.375977,512.143066 
	C455.431488,479.303864 459.585114,446.476715 463.850128,412.762054 
z"/>
<path fill="#FCFAFD" opacity="1.000000" stroke="none" 
	d="
M361.366058,767.150269 
	C353.209167,767.231079 345.048645,767.462708 336.898499,767.265625 
	C335.269501,767.226196 333.185974,765.930359 332.145416,764.574463 
	C311.372833,737.505554 290.725159,710.340759 270.042938,683.202576 
	C268.492645,681.168335 266.872040,679.187805 265.284119,677.182312 
	C264.881256,677.336304 264.478394,677.490295 264.075531,677.644287 
	C264.075531,707.323486 264.075531,737.002686 264.075531,767.038940 
	C253.021759,767.038940 242.616745,767.038940 231.863190,767.038940 
	C231.768890,765.994385 231.610138,765.054932 231.609848,764.115417 
	C231.595612,718.131531 231.648483,672.147522 231.498779,626.164124 
	C231.485764,622.169495 232.578903,620.930969 236.517975,621.079102 
	C243.672028,621.348022 250.858917,620.892273 257.998474,621.311523 
	C260.248322,621.443604 263.112244,622.848083 264.474182,624.612610 
	C284.808167,650.956421 304.940552,677.455933 325.106232,703.929504 
	C326.274506,705.463196 327.320740,707.089844 329.723267,708.491638 
	C329.723267,679.872375 329.723267,651.253052 330.260803,622.066833 
	C340.875061,621.499939 350.951752,621.499939 361.366058,621.499939 
	C361.366058,670.595276 361.366058,718.872742 361.366058,767.150269 
z"/>
<path fill="#FBF9FC" opacity="1.000000" stroke="none" 
	d="
M576.139038,623.007080 
	C576.038635,636.325867 575.899353,649.644470 575.848816,662.963440 
	C575.798218,676.293396 575.672180,689.626770 575.920959,702.952271 
	C576.013306,707.900940 576.596680,712.950073 577.784851,717.748169 
	C581.333618,732.078918 593.131775,740.315430 608.321899,739.550293 
	C624.553162,738.732727 635.124939,729.765442 637.413635,714.725769 
	C637.887268,711.612793 638.130798,708.434509 638.137695,705.285583 
	C638.194519,679.125305 638.309753,652.963379 638.046875,626.805664 
	C637.998047,621.946167 639.615967,620.882690 644.021179,621.060913 
	C651.507202,621.363831 659.017517,621.279602 666.510864,621.091309 
	C669.860840,621.007080 671.175903,621.837646 671.143677,625.529297 
	C670.893188,654.181641 671.776245,682.876282 670.515869,711.478943 
	C669.004211,745.783386 648.571594,768.341125 610.526428,769.499695 
	C596.532837,769.925842 582.923218,768.348633 570.549500,761.109253 
	C553.929749,751.385864 545.563843,736.054077 544.406311,717.605591 
	C543.010864,695.364319 543.510315,673.002502 543.254761,650.692139 
	C543.159363,642.362000 543.399414,634.025696 543.180481,625.700256 
	C543.088684,622.208923 544.176819,621.005127 547.702515,621.083313 
	C556.695923,621.282837 565.696411,621.160095 575.182983,621.472290 
	C575.827576,622.187988 575.983276,622.597534 576.139038,623.007080 
z"/>
<path fill="#FBF9FC" opacity="1.000000" stroke="none" 
	d="
M509.993408,621.142334 
	C515.286011,621.142395 520.080627,621.142395 526.022217,621.142395 
	C523.938110,624.606689 522.437439,627.239868 520.806946,629.790039 
	C504.868561,654.718567 488.825653,679.581055 473.067627,704.622986 
	C471.255676,707.502380 470.209503,711.346741 470.152405,714.766113 
	C469.863739,732.059692 470.019684,749.360718 470.019684,767.031128 
	C458.962189,767.031128 448.263123,767.031128 437.230225,767.031128 
	C437.230225,749.378113 437.371796,732.074036 437.104736,714.776306 
	C437.054382,711.515198 436.062225,707.851501 434.343719,705.098083 
	C417.536591,678.169739 400.481598,651.396118 383.506927,624.572327 
	C383.015900,623.796387 382.633972,622.951538 381.670319,621.141785 
	C385.532288,621.141785 388.606903,621.140808 391.681549,621.142029 
	C399.342529,621.145081 407.011597,621.358582 414.660980,621.062500 
	C418.362823,620.919250 420.341522,622.307251 422.142456,625.399963 
	C431.676849,641.773254 441.412292,658.029541 451.091248,674.318542 
	C451.840240,675.579102 452.690887,676.779297 453.924042,678.664429 
	C455.967804,675.541687 457.826843,672.883423 459.500671,670.113342 
	C468.525299,655.177856 477.577881,640.258118 486.437836,625.225159 
	C488.270844,622.115051 490.375610,620.837036 494.012177,621.064087 
	C499.154816,621.385010 504.332611,621.143433 509.993408,621.142334 
z"/>
<path fill="#7D3EA6" opacity="1.000000" stroke="none" 
	d="
M670.655212,134.072235 
	C668.771851,133.643936 666.888672,132.841385 665.005188,132.840652 
	C522.023987,132.784683 379.042786,132.791199 236.061584,132.804657 
	C234.736938,132.804779 233.412292,132.963257 231.652222,133.194305 
	C231.958008,132.623749 232.595703,131.504364 233.463913,131.281021 
	C234.874344,130.918182 236.435684,131.121216 237.933319,131.121185 
	C379.612610,131.118073 521.291931,131.111465 662.971191,131.169617 
	C665.716797,131.170746 668.462219,131.936569 671.354553,132.814636 
	C671.219360,133.546539 670.937256,133.809387 670.655212,134.072235 
z"/>
<path fill="#7D3EA6" opacity="1.000000" stroke="none" 
	d="
M231.182556,571.147949 
	C232.918579,571.054260 234.668884,571.647888 236.419373,571.648376 
	C379.081238,571.691650 521.743164,571.690979 664.405029,571.662354 
	C666.199402,571.661987 667.993591,571.260132 670.373901,571.143738 
	C671.033020,571.472168 671.106201,571.702515 671.179443,571.932861 
	C669.256897,572.283447 667.334412,572.940247 665.411743,572.940918 
	C522.486145,572.988342 379.560516,572.989075 236.634949,572.924316 
	C234.822067,572.923523 233.009598,572.033386 231.182556,571.147949 
z"/>
<path fill="#4A0083" opacity="1.000000" stroke="none" 
	d="
M671.521484,571.779480 
	C671.106201,571.702515 671.033020,571.472168 670.778442,570.927856 
	C670.549927,567.453003 670.461792,564.291992 670.461670,561.131042 
	C670.453796,420.249481 670.453430,279.367920 670.454956,138.486374 
	C670.454956,137.321350 670.493530,136.156311 670.584656,134.531769 
	C670.937256,133.809387 671.219360,133.546539 671.651672,133.024170 
	C672.200378,134.666077 672.947083,136.567352 672.947815,138.468903 
	C673.002014,281.144592 673.001282,423.820282 672.950317,566.495972 
	C672.949707,568.206116 672.241516,569.916077 671.521484,571.779480 
z"/>
<path fill="#4A0083" opacity="1.000000" stroke="none" 
	d="
M229.997559,347.000000 
	C229.997543,421.768677 229.997543,496.037354 229.997543,570.306030 
	C229.761108,570.305908 229.524673,570.305786 229.288239,570.305664 
	C229.288239,425.165131 229.288239,280.024597 229.288239,134.884079 
	C229.524673,134.883148 229.761124,134.882217 229.997559,134.881287 
	C229.997559,205.420868 229.997559,275.960419 229.997559,347.000000 
z"/>
<path fill="#7D3EA6" opacity="1.000000" stroke="none" 
	d="
M361.714966,766.983215 
	C361.366058,718.872742 361.366058,670.595276 361.366058,621.499939 
	C350.951752,621.499939 340.875061,621.499939 330.325195,621.580505 
	C331.277740,621.115601 332.694641,620.127075 334.130646,620.098572 
	C341.951965,619.943115 349.782166,620.176880 357.600739,619.963074 
	C361.876556,619.846130 363.001556,621.752136 362.983856,625.685242 
	C362.877472,649.324402 362.933075,672.964355 362.933411,696.604004 
	C362.933716,718.079529 362.954834,739.555054 362.894562,761.030396 
	C362.889160,762.959778 362.353363,764.887634 361.714966,766.983215 
z"/>
<path fill="#4A0083" opacity="1.000000" stroke="none" 
	d="
M576.355225,623.357544 
	C575.983276,622.597534 575.827576,622.187988 575.624756,621.453125 
	C576.383850,622.354187 577.888123,623.577393 577.893433,624.807190 
	C578.008850,651.414978 577.958130,678.023438 577.918030,704.631775 
	C577.917664,704.873657 577.626343,705.115234 577.009766,706.073608 
	C577.009766,702.900391 577.009644,700.446167 577.009705,697.991882 
	C577.009705,675.207581 577.020508,652.423218 576.990601,629.638916 
	C576.988037,627.661743 576.717529,625.684937 576.355225,623.357544 
z"/>
<path fill="#5A0B8E" opacity="1.000000" stroke="none" 
	d="
M439.613708,243.587982 
	C450.012360,231.254944 460.150909,219.170349 466.078979,202.577286 
	C468.254150,207.708649 470.529419,211.571136 471.537994,215.740051 
	C474.463654,227.833328 477.102936,240.009552 479.310699,252.251297 
	C479.752869,254.703033 478.505066,258.200958 476.815796,260.168488 
	C469.132660,269.117371 460.428558,277.234589 453.182007,286.503357 
	C441.015778,302.064758 435.064758,319.795990 438.804871,339.758392 
	C439.957397,345.910065 442.273773,351.843628 444.110474,358.057098 
	C443.802063,358.057098 443.125275,358.253296 442.645660,358.028595 
	C427.223846,350.803436 413.767853,341.363129 407.009552,324.902191 
	C400.593597,309.275055 404.361877,294.531067 411.594849,280.253601 
	C418.604858,266.416260 429.079224,255.195282 439.613708,243.587982 
z"/>
<path fill="#5A0B8E" opacity="1.000000" stroke="none" 
	d="
M491.191437,308.189209 
	C497.383789,304.602417 503.123016,300.899353 509.209412,297.900940 
	C523.367615,290.925964 535.097534,281.244293 544.017700,268.193481 
	C544.243469,267.863159 544.731812,267.712311 546.581177,267.837769 
	C544.617798,279.511536 543.282898,291.335449 540.539062,302.822815 
	C536.732849,318.757721 529.175049,332.807251 517.085327,344.330536 
	C502.557709,358.177460 478.172546,364.120544 459.106567,360.761139 
	C462.742615,339.003387 472.536896,321.150909 491.191437,308.189209 
z"/>
<path fill="#5A0C8E" opacity="1.000000" stroke="none" 
	d="
M463.318054,283.304413 
	C470.672668,276.311371 477.381897,269.059082 485.040741,263.008820 
	C494.852539,255.257782 501.547028,245.425735 507.166260,234.587402 
	C507.747162,233.466904 508.402740,232.385101 509.495636,230.449387 
	C515.575928,242.634308 519.268311,254.485092 519.921814,267.229279 
	C519.930298,267.395264 519.903076,267.565002 519.926758,267.728027 
	C521.783325,280.510071 516.044739,287.947754 504.405090,293.165894 
	C489.352753,299.913971 475.483459,308.839142 465.560486,322.675232 
	C458.825867,332.065613 454.993256,342.553864 453.259308,353.897217 
	C453.097565,354.955200 452.697998,355.976868 452.297699,357.414642 
	C441.062805,335.024597 441.720490,312.740631 457.281738,291.065521 
	C459.122955,288.500885 461.152435,286.071442 463.318054,283.304413 
z"/>
<path fill="#5B0D8E" opacity="1.000000" stroke="none" 
	d="
M374.484192,286.457825 
	C376.538940,282.801147 378.146088,279.299225 380.302734,276.176849 
	C388.052032,264.957825 395.705292,253.718567 399.128784,239.499786 
	C400.199829,240.697815 401.150726,241.349625 401.522430,242.242523 
	C404.454163,249.285294 407.610382,256.266205 409.942627,263.509216 
	C410.722961,265.932587 410.116943,269.545898 408.767517,271.785431 
	C402.222992,282.646851 397.477692,294.085266 396.941223,306.836639 
	C396.126923,326.192596 404.825592,341.064056 419.705200,352.712189 
	C423.198883,355.447113 426.949738,357.853577 430.414215,361.687134 
	C424.481079,361.029175 418.476013,360.750977 412.627960,359.643707 
	C393.363831,355.996155 378.580170,346.492035 372.301086,326.887115 
	C367.964172,313.346252 369.459686,299.947968 374.484192,286.457825 
z"/>
<path fill="#5B0D8E" opacity="1.000000" stroke="none" 
	d="
M463.781189,413.204193 
	C459.585114,446.476715 455.431488,479.303864 451.375977,512.143066 
	C451.011963,515.090515 450.134552,518.057068 447.005341,517.453552 
	C445.213989,517.108032 442.873413,514.058533 442.640167,512.014160 
	C438.776154,478.148987 435.211914,444.249634 431.568115,410.359283 
	C431.041565,405.462372 430.450256,400.572418 429.870453,395.518005 
	C442.206360,395.518005 453.874603,395.518005 466.026642,395.518005 
	C465.256470,401.619904 464.553284,407.190979 463.781189,413.204193 
z"/>
<path fill="#5D1190" opacity="1.000000" stroke="none" 
	d="
M417.959076,387.238525 
	C417.596436,381.854584 417.179169,376.472626 416.980499,371.082642 
	C416.965485,370.675415 418.504517,369.831512 419.323456,369.828522 
	C438.888000,369.757050 458.452881,369.772919 478.831055,369.772919 
	C478.831055,375.264435 478.831055,380.324921 478.268585,385.619598 
	C476.746399,385.593994 475.787506,385.110931 474.826874,385.107483 
	C457.005676,385.043549 439.184021,384.996063 421.363586,385.113373 
	C420.224121,385.120850 419.093689,386.498352 417.959076,387.238525 
z"/>
<path fill="#4A0083" opacity="1.000000" stroke="none" 
	d="
M418.331970,387.434021 
	C419.093689,386.498352 420.224121,385.120850 421.363586,385.113373 
	C439.184021,384.996063 457.005676,385.043549 474.826874,385.107483 
	C475.787506,385.110931 476.746399,385.593994 478.132446,386.015869 
	C477.169128,386.685760 475.781250,387.629822 474.389587,387.635437 
	C455.828339,387.710114 437.266541,387.653473 418.331970,387.434021 
z"/>
</svg>