<svg version="1.1" id="Layer_1" xmlns="http://www.w3.org/2000/svg" xmlns:xlink="http://www.w3.org/1999/xlink" x="0px" y="0px"
	 width="100%" viewBox="0 0 866 650" enable-background="new 0 0 866 650" xml:space="preserve">
<path fill="none" opacity="1.000000" stroke="#000000" stroke-linecap="round" stroke-linejoin="round" stroke-width="6.000000"
	d="
M459.500000,204.500000 
	C458.500000,204.500000 457.500000,204.500000 456.500000,204.500000 
	C448.293427,204.500000 448.486389,204.474091 447.417450,196.511078 
	C446.894287,192.613739 445.826263,188.706360 444.399078,185.039276 
	C443.208923,181.981247 440.712982,180.540054 436.988892,180.877106 
	C433.678284,181.176727 430.891968,180.911621 429.384399,184.956909 
	C427.551453,189.875259 425.807739,194.759247 425.556213,200.002701 
	C425.405518,203.143463 424.155701,204.649933 420.999786,204.504471 
	C420.334564,204.473801 419.588898,204.303299 419.012329,204.531204 
	C414.512756,206.309845 412.853790,203.983170 411.962585,200.008392 
	C411.022797,195.817017 408.674316,192.268417 405.974030,189.021591 
	C402.323334,184.632034 397.726868,183.734207 393.077393,186.864929 
	C391.518494,187.914597 390.992828,190.279877 390.959747,192.499405 
	C390.872620,198.345154 390.791809,204.182144 391.500000,210.000000 
"/>
<path fill="none" opacity="1.000000" stroke="#000000" stroke-linecap="round" stroke-linejoin="round" stroke-width="5.000000"
	d="
M361.500000,307.000000 
	C371.869354,312.018036 372.589447,315.031097 368.605164,326.038055 
	C362.577942,342.688782 364.809052,358.803040 374.593048,373.437805 
	C382.914032,385.884186 395.018829,393.758148 409.561737,396.694214 
	C414.748871,397.741455 420.061401,399.373718 426.059998,398.352356 
	C434.320526,396.945862 443.051880,398.604279 451.489685,397.879730 
	C471.804321,396.135437 487.415588,386.651398 497.542847,368.523926 
	C505.400146,354.459686 506.443115,340.021301 500.990967,325.003296 
	C497.770264,316.131744 499.346405,312.913635 509.500000,308.000000 
"/>
<path fill="none" opacity="1.000000" stroke="#000000" stroke-linecap="round" stroke-linejoin="round" stroke-width="6.000000"
	d="
M513.000000,308.750000 
	C512.016602,308.138214 510.524811,308.304779 510.011536,306.995483 
	C506.792114,298.783264 499.967682,296.078247 491.996643,295.550598 
	C482.516571,294.923035 474.638824,298.127747 469.525238,306.515381 
	C464.748810,314.350006 465.059723,322.379181 468.981567,330.508881 
	C473.468262,339.809509 473.679688,349.059479 467.979004,357.986603 
	C464.871277,362.853241 460.534119,365.979889 454.513763,364.921722 
	C449.042114,363.960022 445.336609,360.513458 444.044373,354.989624 
	C443.332886,351.948334 444.536713,348.986023 446.068237,346.542786 
	C454.209259,333.555389 455.044128,319.144043 454.454071,304.501862 
	C453.867798,289.953064 447.360138,277.136230 442.032471,263.986847 
	C440.649841,260.574341 439.738159,256.973846 438.471405,253.510452 
	C437.784729,251.633011 437.912170,249.047180 435.000000,248.750000 
"/>
<path fill="none" opacity="1.000000" stroke="#000000" stroke-linecap="round" stroke-linejoin="round" stroke-width="5.000000"
	d="
M435.000000,249.500000 
	C432.833344,255.166672 430.924683,260.949493 428.438416,266.472260 
	C424.876251,274.385040 420.642792,282.146179 418.661255,290.538086 
	C414.311157,308.960876 413.716370,327.438751 422.561523,344.968964 
	C426.547302,352.868378 425.583313,359.224670 419.000000,362.999969 
	C412.133789,366.937469 405.698242,364.986328 401.004395,357.497253 
	C395.803589,349.199371 396.737732,340.498230 400.099731,332.039642 
	C402.976501,324.801758 405.436310,317.784851 402.512695,309.995239 
	C399.276550,301.373047 392.791351,297.131287 384.010590,295.444794 
	C375.415497,293.794037 368.415649,296.580780 362.573456,302.571625 
	C360.786407,304.404175 360.591003,307.686951 357.500000,308.500000 
"/>
<path fill="none" opacity="1.000000" stroke="#000000" stroke-linecap="round" stroke-linejoin="round" stroke-width="6.000000"
	d="
M563.000000,308.250000 
	C565.718506,309.132751 564.397888,311.395050 564.437622,313.001556 
	C564.603699,319.712341 565.574829,320.819733 571.999756,321.007996 
	C575.789490,321.118988 579.463806,321.858093 583.000366,323.248993 
	C588.490662,325.408173 590.164246,328.484436 589.045532,334.009216 
	C588.831909,335.064362 588.479309,335.506256 587.531128,336.053894 
	C581.778870,339.376160 575.800781,342.015625 569.012268,341.153564 
	C566.327026,340.812622 565.226196,341.861389 564.796875,344.009369 
	C564.338745,346.301117 564.314209,348.675873 563.980835,350.997253 
	C563.683899,353.065186 565.332642,353.017944 566.502075,353.494965 
	C571.995361,355.735626 577.427429,357.908295 582.121277,361.855804 
	C584.329346,363.712830 584.662903,365.873749 583.828430,367.406586 
	C582.447449,369.943054 583.491333,374.237823 578.507751,374.605042 
	C571.539124,375.118469 564.686096,375.512451 557.919800,372.942810 
	C555.427673,376.068726 554.808533,380.067566 552.851562,383.782013 
	C556.866333,386.993561 561.153870,390.010651 564.946960,393.556732 
	C570.294861,398.556427 570.385071,400.793701 566.483154,406.989380 
	C565.793701,408.084076 564.883606,409.039856 564.052368,410.088898 
	C556.363403,408.859802 548.868408,407.240234 541.977722,403.216248 
	C538.555786,405.921234 536.574951,409.497772 534.166443,412.974640 
	C538.415405,419.699890 544.508728,425.231110 545.226196,433.831421 
	C539.795227,440.404846 535.866028,440.803497 527.527405,434.960876 
	C524.422974,432.785706 521.630554,430.165344 518.612793,427.679596 
	C514.928650,429.598755 511.551849,431.447601 509.538910,435.337524 
	C511.145721,440.892303 514.351379,446.287109 515.014282,452.498474 
	C515.361450,455.751190 514.780334,458.688934 511.472870,459.927582 
	C508.466919,461.053284 505.486725,463.391510 501.964630,460.543762 
	C496.823975,456.387360 492.648834,451.447021 488.949005,445.969513 
	C484.903900,446.152374 481.613739,448.521088 477.954529,450.018616 
	C479.538666,456.438202 480.645691,462.794342 479.130524,469.529358 
	C478.094299,474.135284 474.674500,473.923401 471.536133,475.096680 
	C468.594452,476.196381 466.663818,476.335632 464.407166,473.575897 
	C460.908936,469.297791 458.252930,464.507996 456.693237,459.440521 
	C455.139038,454.390717 451.678497,455.411407 448.505737,455.597778 
	C445.172821,455.793579 443.501312,458.483429 443.597839,461.496857 
	C443.753143,466.346252 442.037842,470.650269 440.432190,474.974823 
	C439.233032,478.204559 437.098541,480.213593 432.997559,480.144745 
	C429.053955,480.078491 427.105988,478.525513 425.968506,475.010193 
	C424.378906,470.097595 422.333435,465.313202 422.496948,459.999908 
	C422.591644,456.922577 420.995361,455.528625 418.000153,455.488922 
	C416.665924,455.471252 415.281708,455.534363 414.010803,455.207947 
	C411.422058,454.542999 410.313446,455.258484 409.386627,457.961121 
	C407.480225,463.520355 404.667572,468.688049 400.510834,473.010406 
	C397.110535,476.546204 390.484406,475.127594 388.474670,470.511017 
	C385.408997,463.468964 387.550385,456.500000 388.418518,449.701355 
	C385.138733,446.871521 380.471863,446.913605 377.250000,444.000000 
"/>
<path fill="none" opacity="1.000000" stroke="#000000" stroke-linecap="round" stroke-linejoin="round" stroke-width="6.000000"
	d="
M329.000000,256.000000 
	C323.353943,254.815308 318.389526,251.185318 312.498535,251.096619 
	C309.973358,251.058624 307.144501,249.787827 304.908569,252.935059 
	C301.360443,257.929382 301.088531,261.277374 305.547943,265.448761 
	C309.264923,268.925629 313.401703,271.953735 317.576935,275.363892 
	C317.406708,279.242126 314.206238,282.213165 313.001892,286.069519 
	C306.018341,285.062653 299.101227,283.205292 291.985504,285.454132 
	C287.534332,286.860870 285.330994,293.660522 288.503448,296.996704 
	C292.280640,300.968750 297.144592,303.294128 302.025360,305.442352 
	C307.126862,307.687744 307.731445,308.304657 306.483459,312.995605 
	C306.037048,314.673584 305.400482,316.300934 304.773956,318.181915 
	C299.066528,318.665985 293.235748,319.690033 287.468872,321.394653 
	C283.045227,322.702240 281.955688,325.104340 281.815643,329.494110 
	C281.670044,334.058563 284.020477,335.506378 287.504486,336.484039 
	C291.318115,337.554230 295.141602,338.612396 299.005859,339.473663 
	C304.794586,340.763885 305.134796,341.172974 305.571686,346.994629 
	C305.665710,348.247406 304.125427,350.449829 307.000000,350.750000 
"/>
<path fill="none" opacity="1.000000" stroke="#000000" stroke-linecap="round" stroke-linejoin="round" stroke-width="5.000000"
	d="
M481.500000,210.500000 
	C481.244049,204.321915 483.197021,198.256424 482.107330,191.981369 
	C481.532471,188.671097 479.858154,186.613678 476.978302,186.129013 
	C474.112244,185.646667 470.841309,184.369339 468.443909,187.962570 
	C464.687469,193.592667 460.994843,199.187317 459.750000,206.000000 
"/>
<path fill="none" opacity="1.000000" stroke="#000000" stroke-linecap="round" stroke-linejoin="round" stroke-width="6.000000"
	d="
M335.500000,411.500000 
	C328.868011,414.155151 326.674591,420.608154 323.631378,426.073151 
	C320.676636,431.379242 321.551300,432.153656 325.893890,436.603577 
	C327.756104,438.511780 329.536987,437.931580 330.960114,437.394348 
	C337.510010,434.921692 343.348480,431.097412 348.986206,426.614685 
	C352.141418,428.975708 355.104370,431.192841 358.348846,433.620667 
	C356.564148,438.251617 354.665131,442.834839 353.028137,447.509857 
	C350.728455,454.077393 351.666016,456.012909 356.938812,459.590179 
	C359.621735,461.410370 361.686890,461.186951 363.995911,459.494446 
	C369.378876,455.548737 373.532990,450.366302 378.000000,445.500000 
"/>
<path fill="none" opacity="1.000000" stroke="#000000" stroke-linecap="round" stroke-linejoin="round" stroke-width="6.000000"
	d="
M447.500000,399.500000 
	C447.500000,404.166656 447.389221,408.837036 447.544891,413.498505 
	C447.627563,415.975250 446.757568,418.223633 444.491669,418.377258 
	C437.340179,418.862152 430.118286,420.112488 423.006653,417.977875 
	C422.456177,417.812653 422.000000,417.333313 421.500000,417.000000 
"/>
<path fill="none" opacity="1.000000" stroke="#000000" stroke-linecap="round" stroke-linejoin="round" stroke-width="6.000000"
	d="
M285.500000,363.000000 
	C285.224182,365.499573 286.117950,367.783478 287.037018,369.984558 
	C288.769653,374.134186 292.910614,372.798096 296.020416,373.393311 
	C300.883087,374.324036 305.670105,372.533173 310.529694,371.961761 
	C313.273651,374.972870 314.514557,378.675598 315.747742,382.833008 
	C310.259247,385.830231 305.699860,389.962799 301.512024,394.511078 
	C299.237671,396.981079 297.935211,399.648865 299.976288,403.014374 
	C301.968872,406.299896 304.020203,407.937164 308.535675,407.226807 
	C314.540405,406.282166 319.935364,404.013550 325.702972,401.992310 
	C329.008820,404.457489 331.400116,407.856049 333.500000,411.500000 
"/>
<path fill="none" opacity="1.000000" stroke="#000000" stroke-linecap="round" stroke-linejoin="round" stroke-width="4.000000"
	d="
M436.000000,275.500000 
	C433.494934,284.518036 437.440704,292.086151 440.754395,300.101532 
	C442.658875,304.708160 446.164459,310.333344 441.000000,315.500000 
"/>
<path fill="none" opacity="1.000000" stroke="#000000" stroke-linecap="round" stroke-linejoin="round" stroke-width="6.000000"
	d="
M520.500000,235.500000 
	C524.601013,227.534821 531.920654,224.022278 540.029114,222.124344 
	C544.123108,221.166077 548.503845,227.872528 547.012390,232.004471 
	C544.656067,238.532211 539.768311,243.399109 535.800903,249.117615 
	C538.216858,252.235931 540.424744,255.479370 543.806396,258.249268 
	C549.046753,254.640320 555.159912,252.893219 561.508667,252.066467 
	C564.228577,251.712280 566.618408,251.648788 568.249634,255.391205 
	C569.792480,258.930847 571.571655,261.769867 568.474121,264.974976 
	C564.356567,269.235504 560.428223,273.756317 554.840881,276.315094 
	C555.082214,277.847473 555.250000,279.181763 555.507080,280.498627 
	C556.689148,286.555145 558.063232,287.628082 563.996094,286.724548 
	C568.668640,286.012939 573.321045,286.177917 578.001404,286.477661 
	C580.995056,286.669342 583.099670,288.019226 583.430298,291.007721 
	C583.749512,293.893219 585.706848,296.876312 582.072388,299.596710 
	C576.683167,303.630463 570.601379,306.021179 564.500000,308.500000 
"/>
<path fill="none" opacity="1.000000" stroke="#000000" stroke-linecap="round" stroke-linejoin="round" stroke-width="4.000000"
	d="
M585.500000,453.500000 
	C583.500000,453.500000 581.318420,452.985718 579.540100,453.613556 
	C576.420776,454.714844 575.379761,458.648438 577.024292,461.988037 
	C578.669922,465.329712 580.826599,468.259979 585.001343,468.473511 
	C587.898621,468.621765 591.387878,468.996338 592.364197,465.462463 
	C593.173279,462.533722 592.792480,459.274628 588.739807,458.056396 
	C586.959534,458.189331 586.505127,460.757721 584.500000,461.000000 
"/>
<path fill="none" opacity="1.000000" stroke="#000000" stroke-linecap="round" stroke-linejoin="round" stroke-width="5.000000"
	d="
M485.500000,313.000000 
	C482.694275,312.864380 480.807709,315.202576 481.212921,316.950653 
	C482.161926,321.044678 480.187714,324.982910 481.416443,329.025391 
	C482.291382,331.903809 482.773621,334.922028 483.165314,337.978821 
	C484.144531,345.620972 480.603760,351.662689 477.611938,358.052399 
	C477.163910,359.009338 475.045105,360.607788 477.486786,362.022797 
	C478.883728,362.832367 479.746338,362.190491 481.042480,361.591949 
	C485.546600,359.511871 489.489166,356.993317 492.074860,352.543518 
	C492.874573,351.167358 494.184662,350.259308 493.066986,348.458435 
	C492.925903,348.231140 492.954193,347.426941 493.397614,346.688507 
	C496.678253,341.225861 494.350433,336.095856 491.377045,331.580994 
	C489.078125,328.090210 486.584839,324.415161 482.500000,322.500000 
"/>
<path fill="none" opacity="1.000000" stroke="#000000" stroke-linecap="round" stroke-linejoin="round" stroke-width="4.000000"
	d="
M386.000000,345.500000 
	C388.825745,349.860657 389.493164,355.223419 392.911774,359.530121 
	C389.131378,363.716675 386.473206,359.900574 384.056946,358.407837 
	C377.979492,354.653229 374.500549,351.341675 377.500000,346.000000 
"/>
<path fill="none" opacity="1.000000" stroke="#000000" stroke-linecap="round" stroke-linejoin="round" stroke-width="4.000000"
	d="
M325.499969,487.499969 
	C323.499969,490.666656 321.434937,493.794556 319.517761,497.010590 
	C317.486542,500.417969 318.264099,503.535309 321.501770,505.497070 
	C324.681549,507.423706 327.120117,506.718201 329.020111,503.511932 
	C330.928711,500.291077 333.000031,497.166687 335.000031,494.000031 
"/>
<path fill="none" opacity="1.000000" stroke="#000000" stroke-linecap="round" stroke-linejoin="round" stroke-width="5.000000"
	d="
M480.000000,210.750000 
	C484.054993,211.566895 487.369324,214.387909 492.120575,214.881180 
	C494.391693,211.405426 497.686249,208.189941 501.008667,205.009064 
	C506.678131,199.581100 509.576202,197.622314 516.586792,203.645020 
	C517.004822,211.572815 514.499268,218.428360 510.835449,225.254822 
	C513.239746,229.033661 516.774597,231.448441 521.000000,233.000000 
"/>
<path fill="none" opacity="1.000000" stroke="#000000" stroke-linecap="round" stroke-linejoin="round" stroke-width="4.000000"
	d="
M631.500000,368.000000 
	C631.666626,366.000000 631.871033,364.002258 631.990356,361.999420 
	C632.138794,359.510101 631.211182,358.063751 628.522278,357.408630 
	C625.799133,356.745148 624.080505,357.959808 623.646423,360.030701 
	C623.180664,362.252991 620.899902,365.005951 623.116455,366.860870 
	C625.145691,368.559113 628.117065,369.396698 631.000000,368.000000 
"/>
<path fill="none" opacity="1.000000" stroke="#000000" stroke-linecap="round" stroke-linejoin="round" stroke-width="5.000000"
	d="
M393.500000,210.500000 
	C389.222198,210.206314 386.351959,214.537399 381.527435,213.891510 
	C377.743866,208.922791 373.547852,203.879074 368.095337,199.870331 
	C364.705414,197.378021 362.631317,199.566376 359.995880,200.488251 
	C357.079498,201.508408 356.290192,203.518570 356.432800,206.503204 
	C356.639801,210.835037 357.147308,214.999756 358.966125,219.015350 
	C361.859680,225.403748 361.561371,226.315628 355.983459,230.477844 
	C355.101471,231.135971 354.000000,231.500000 353.000000,232.000000 
"/>
<path fill="none" opacity="1.000000" stroke="#000000" stroke-linecap="round" stroke-linejoin="round" stroke-width="4.000000"
	d="
M491.000000,514.500000 
	C488.896881,512.345032 486.959442,510.110504 483.470520,512.456177 
	C480.075470,514.738708 478.673889,517.500793 479.984833,521.504944 
	C480.809357,524.023376 481.445557,526.722412 483.536530,528.455933 
	C486.814575,531.173584 491.089783,529.382080 493.500000,524.500000 
"/>
<path fill="none" opacity="1.000000" stroke="#000000" stroke-linecap="round" stroke-linejoin="round" stroke-width="6.000000"
	d="
M352.500000,234.500000 
	C352.331787,233.666977 352.849121,232.766205 352.013580,231.985474 
	C348.059448,228.290817 343.629486,225.217972 338.967926,222.556152 
	C334.355591,219.922455 331.599030,220.652954 327.961761,223.957916 
	C324.270142,227.312271 325.213104,230.984726 327.070038,234.462601 
	C329.805786,239.586426 332.792236,244.613647 337.000000,248.750000 
"/>
<path fill="none" opacity="1.000000" stroke="#000000" stroke-linecap="round" stroke-linejoin="round" stroke-width="5.000000"
	d="
M388.000000,322.500000 
	C381.636963,326.184204 376.740051,331.192596 375.066986,338.515320 
	C373.536743,345.213135 377.225220,346.683136 381.510895,345.028229 
	C382.592407,344.610626 383.808777,344.542267 385.671753,344.172913 
	C386.772644,338.428314 387.757111,332.117035 388.661591,325.950378 
	C389.299072,321.604034 392.124359,316.029846 387.000000,312.000000 
"/>
<path fill="none" opacity="1.000000" stroke="#000000" stroke-linecap="round" stroke-linejoin="round" stroke-width="5.000000"
	d="
M434.000000,290.500000 
	C430.540100,296.418274 427.887512,302.620911 426.981689,309.497589 
	C426.313812,314.567963 429.079834,317.769897 433.983459,316.906128 
	C436.188080,316.517792 438.333313,316.666504 440.500000,316.500000 
"/>
<path fill="none" opacity="1.000000" stroke="#000000" stroke-linecap="round" stroke-linejoin="round" stroke-width="4.000000"
	d="
M441.000000,317.500000 
	C442.762970,319.809387 443.252197,321.919525 442.167053,325.057770 
	C440.165039,330.847687 437.949585,336.431641 434.500000,341.500000 
"/>
<path fill="none" opacity="1.000000" stroke="#000000" stroke-linecap="round" stroke-linejoin="round" stroke-width="5.000000"
	d="
M429.000000,318.500000 
	C424.965393,321.990845 427.392914,325.945007 428.608734,329.462402 
	C430.160217,333.950806 432.500000,338.166656 434.500000,342.500000 
"/>
<path fill="none" opacity="1.000000" stroke="#000000" stroke-linecap="round" stroke-linejoin="round" stroke-width="4.000000"
	d="
M427.500000,125.000008 
	C423.500000,125.666672 419.510101,126.405060 415.495880,126.970871 
	C413.368011,127.270798 411.830841,126.290588 410.445007,124.543640 
	C408.319183,121.863960 405.359833,120.197273 401.993713,119.531845 
	C398.703979,118.881546 395.332642,121.679588 396.665710,124.419380 
	C400.171814,131.625565 399.353546,139.805725 402.500000,147.000000 
"/>
<path fill="none" opacity="1.000000" stroke="#000000" stroke-linecap="round" stroke-linejoin="round" stroke-width="3.000000"
	d="
M561.000000,175.500000 
	C559.546997,172.905609 557.959961,170.485413 554.404297,170.500381 
	C554.151855,170.639847 553.787842,170.773788 553.505615,171.006775 
	C547.363770,176.076126 547.834595,178.048203 556.000000,181.500000 
"/>
<path fill="none" opacity="1.000000" stroke="#000000" stroke-linecap="round" stroke-linejoin="round" stroke-width="4.000000"
	d="
M634.500000,323.500000 
	C632.671204,321.788239 631.164734,319.014771 628.012756,321.020020 
	C623.466858,323.911987 626.346252,328.275085 625.145325,332.500000 
	C631.823792,332.500000 637.661926,332.500000 643.500000,332.500000 
"/>
<path fill="none" opacity="1.000000" stroke="#000000" stroke-linecap="round" stroke-linejoin="round" stroke-width="4.000000"
	d="
M626.500000,339.500000 
	C629.833313,339.500000 633.170105,339.405548 636.499084,339.525482 
	C640.117004,339.655884 643.213684,342.842529 643.000000,346.000000 
	C642.759766,349.549805 640.524902,351.538513 636.500427,351.472321 
	C632.419373,351.405243 628.418640,350.654938 624.500000,349.500000 
"/>
<path fill="none" opacity="1.000000" stroke="#000000" stroke-linecap="round" stroke-linejoin="round" stroke-width="6.000000"
	d="
M305.000000,351.000000 
	C299.705688,353.236176 294.261200,354.986969 289.351776,358.278961 
	C287.358917,359.615265 286.710388,362.982269 283.500000,362.500000 
"/>
<path fill="none" opacity="1.000000" stroke="#000000" stroke-linecap="round" stroke-linejoin="round" stroke-width="4.000000"
	d="
M246.500000,368.500000 
	C241.333328,369.666656 236.168472,370.841400 230.998871,371.994904 
	C229.506256,372.327942 228.000000,372.975159 226.500000,372.000000 
"/>
<path fill="none" opacity="1.000000" stroke="#000000" stroke-linecap="round" stroke-linejoin="round" stroke-width="4.000000"
	d="
M371.500000,509.500000 
	C367.476776,509.453949 364.694763,505.506897 359.630310,506.738251 
	C356.994049,510.419647 356.485626,516.138245 353.513428,521.137024 
	C357.430145,523.593994 361.400574,524.945312 365.500000,526.000000 
"/>
<path fill="none" opacity="1.000000" stroke="#000000" stroke-linecap="round" stroke-linejoin="round" stroke-width="5.000000"
	d="
M241.500000,325.000000 
	C235.168976,324.745728 228.810043,325.551727 222.500000,324.500000 
"/>
<path fill="none" opacity="1.000000" stroke="#000000" stroke-linecap="round" stroke-linejoin="round" stroke-width="4.000000"
	d="
M319.000000,163.500000 
	C321.114929,167.157898 321.114929,167.157898 317.000000,172.250000 
	C321.333893,177.238617 323.074829,176.883987 330.555756,169.444565 
	C330.186066,165.632935 327.427368,162.866028 326.000000,159.500000 
"/>
<path fill="none" opacity="1.000000" stroke="#000000" stroke-linecap="round" stroke-linejoin="round" stroke-width="4.000000"
	d="
M471.500000,515.500000 
	C468.468292,517.851562 463.971924,514.743896 461.193695,519.031982 
	C461.565643,522.012634 462.173096,525.745422 462.463379,529.502808 
	C462.801971,533.885010 463.519165,534.574280 468.000305,534.002441 
	C470.218475,533.719360 472.573120,534.039062 474.500000,532.500000 
"/>
<path fill="none" opacity="1.000000" stroke="#000000" stroke-linecap="round" stroke-linejoin="round" stroke-width="4.000000"
	d="
M452.500000,126.000000 
	C451.513062,125.754951 450.503021,125.850060 449.472382,125.628410 
	C446.212494,124.927322 444.341949,126.079315 444.413818,130.001572 
	C444.508301,135.158920 445.059052,140.362122 444.000000,145.500000 
"/>
<path fill="none" opacity="1.000000" stroke="#000000" stroke-linecap="round" stroke-linejoin="round" stroke-width="4.000000"
	d="
M267.000000,450.500000 
	C266.366913,453.533295 265.683014,456.376862 268.415649,459.085114 
	C270.220490,460.873871 272.155670,460.716370 273.980957,460.392578 
	C276.091187,460.018219 276.420532,458.021515 276.558136,456.003967 
	C276.701172,453.906342 275.637085,452.278870 274.962372,450.514404 
	C274.023834,448.060150 274.083832,445.649963 276.553009,444.628052 
	C278.609222,443.777008 280.591095,444.861816 282.064453,446.954620 
	C283.802979,449.424011 283.864197,451.840332 283.000000,454.500000 
"/>
<path fill="none" opacity="1.000000" stroke="#000000" stroke-linecap="round" stroke-linejoin="round" stroke-width="3.000000"
	d="
M365.499969,139.000000 
	C367.666656,145.166672 369.833313,151.333344 371.999969,157.500000 
"/>
<path fill="none" opacity="1.000000" stroke="#000000" stroke-linecap="round" stroke-linejoin="round" stroke-width="4.000000"
	d="
M415.000000,128.000000 
	C416.163452,133.776474 414.662903,139.781281 416.500000,145.500000 
"/>
<path fill="none" opacity="1.000000" stroke="#000000" stroke-linecap="round" stroke-linejoin="round" stroke-width="4.000000"
	d="
M266.500000,421.500000 
	C260.448639,423.773346 254.778046,426.765961 249.500000,430.500000 
"/>
<path fill="none" opacity="1.000000" stroke="#000000" stroke-linecap="round" stroke-linejoin="round" stroke-width="4.000000"
	d="
M420.500000,519.000000 
	C416.666656,520.949036 412.833344,517.256042 408.467590,519.101624 
	C408.716187,524.583252 408.266754,530.141418 406.500000,535.500000 
"/>
<path fill="none" opacity="1.000000" stroke="#000000" stroke-linecap="round" stroke-linejoin="round" stroke-width="4.000000"
	d="
M392.000031,132.000000 
	C393.333344,137.666656 394.666687,143.333328 396.000031,149.000000 
"/>
<path fill="none" opacity="1.000000" stroke="#000000" stroke-linecap="round" stroke-linejoin="round" stroke-width="8.000000"
	d="
M420.500000,400.000000 
	C420.500000,405.500000 420.500000,411.000000 420.500000,416.500000 
"/>
<path fill="none" opacity="1.000000" stroke="#000000" stroke-linecap="round" stroke-linejoin="round" stroke-width="3.000000"
	d="
M563.500000,177.000000 
	C565.522583,178.500717 567.844543,180.224182 566.896118,182.964050 
	C565.592041,186.731644 562.593201,188.980865 558.500000,189.500000 
"/>
<path fill="none" opacity="1.000000" stroke="#000000" stroke-linecap="round" stroke-linejoin="round" stroke-width="4.000000"
	d="
M447.000000,521.000000 
	C447.333344,526.500000 447.666687,532.000000 448.000000,537.500000 
"/>
<path fill="none" opacity="1.000000" stroke="#000000" stroke-linecap="round" stroke-linejoin="round" stroke-width="3.000000"
	d="
M521.500000,145.500000 
	C518.833374,150.833344 516.166687,156.166672 513.500000,161.500000 
"/>
<path fill="none" opacity="1.000000" stroke="#000000" stroke-linecap="round" stroke-linejoin="round" stroke-width="4.000000"
	d="
M318.500000,184.500000 
	C315.166656,180.000000 311.964539,175.394501 308.457977,171.033783 
	C305.709290,167.615524 299.906403,166.623032 296.000000,168.500015 
	C292.285217,170.284927 292.015686,171.872391 295.003479,174.496048 
	C295.981262,175.354660 297.000000,176.166672 298.000000,177.000000 
"/>
<path fill="none" opacity="1.000000" stroke="#000000" stroke-linecap="round" stroke-linejoin="round" stroke-width="3.000000"
	d="
M546.500000,481.500000 
	C548.143982,487.498413 553.664368,490.823456 555.892944,496.108154 
	C561.400757,496.262451 563.247498,490.925964 567.500000,490.000000 
"/>
<path fill="none" opacity="1.000000" stroke="#000000" stroke-linecap="round" stroke-linejoin="round" stroke-width="4.000000"
	d="
M257.500000,404.000000 
	C253.335632,405.061676 249.364380,406.615509 245.468887,408.433319 
	C244.510834,408.880402 243.166672,408.500000 242.000000,408.500000 
"/>
<path fill="none" opacity="1.000000" stroke="#000000" stroke-linecap="round" stroke-linejoin="round" stroke-width="4.000000"
	d="
M379.000000,143.500000 
	C373.152618,144.687469 376.900604,147.931091 377.063934,150.570648 
	C386.721588,149.005936 389.127594,145.199234 386.407135,136.027542 
	C386.170013,135.228149 385.347931,134.527496 385.500000,133.500000 
"/>
<path fill="none" opacity="1.000000" stroke="#000000" stroke-linecap="round" stroke-linejoin="round" stroke-width="4.000000"
	d="
M240.500000,332.500000 
	C239.583206,333.707886 238.093307,333.886963 237.028763,333.432617 
	C232.257477,331.396271 227.317429,333.063965 222.500000,332.500000 
"/>
<path fill="none" opacity="1.000000" stroke="#000000" stroke-linecap="round" stroke-linejoin="round" stroke-width="3.000000"
	d="
M619.500000,373.000000 
	C624.398743,374.970520 629.908752,375.107025 634.500000,378.000000 
"/>
<path fill="none" opacity="1.000000" stroke="#000000" stroke-linecap="round" stroke-linejoin="round" stroke-width="3.000000"
	d="
M346.500000,501.000000 
	C343.833344,505.833344 341.166656,510.666656 338.500000,515.500000 
"/>
<path fill="none" opacity="1.000000" stroke="#000000" stroke-linecap="round" stroke-linejoin="round" stroke-width="3.000000"
	d="
M504.000000,140.000000 
	C508.834259,137.410645 512.783020,140.502289 517.004272,141.987839 
	C525.561462,144.999313 533.378967,149.570557 541.474060,153.552780 
	C542.006470,153.814697 542.166687,154.833328 542.500000,155.500000 
"/>
<path fill="none" opacity="1.000000" stroke="#000000" stroke-linecap="round" stroke-linejoin="round" stroke-width="4.000000"
	d="
M227.500000,343.000000 
	C231.990692,345.796967 236.783539,344.363861 241.500000,344.000000 
"/>
<path fill="none" opacity="1.000000" stroke="#000000" stroke-linecap="round" stroke-linejoin="round" stroke-width="3.000000"
	d="
M363.500000,138.000000 
	C360.119293,133.747986 355.986542,131.668518 350.500000,133.500000 
"/>
<path fill="none" opacity="1.000000" stroke="#000000" stroke-linecap="round" stroke-linejoin="round" stroke-width="3.000000"
	d="
M577.250000,182.000000 
	C571.762085,185.524445 568.288818,191.257278 563.000000,195.000000 
"/>
<path fill="none" opacity="1.000000" stroke="#000000" stroke-linecap="round" stroke-linejoin="round" stroke-width="3.000000"
	d="
M557.500000,165.000000 
	C568.941101,173.828461 580.193176,182.728424 589.190369,194.352631 
	C593.571472,200.012939 598.207825,205.607880 603.012268,210.989044 
	C605.802551,214.114304 606.569641,218.739441 610.500000,221.000000 
"/>
<path fill="none" opacity="1.000000" stroke="#000000" stroke-linecap="round" stroke-linejoin="round" stroke-width="3.000000"
	d="
M592.000000,199.500000 
	C589.468201,201.968216 586.421204,203.921188 584.396667,206.952423 
	C584.814331,209.497208 586.296204,211.313309 588.000000,213.000000 
"/>
<path fill="none" opacity="1.000000" stroke="#000000" stroke-linecap="round" stroke-linejoin="round" stroke-width="4.000000"
	d="
M313.500000,480.000000 
	C310.027832,484.355835 305.746094,488.057739 303.000000,493.000000 
"/>
<path fill="none" opacity="1.000000" stroke="#000000" stroke-linecap="round" stroke-linejoin="round" stroke-width="4.000000"
	d="
M265.500000,430.500000 
	C266.472443,431.666656 265.830841,433.298065 265.392487,433.924805 
	C262.488800,438.076141 261.830139,443.146729 259.500000,447.500000 
"/>
<path fill="none" opacity="1.000000" stroke="#000000" stroke-linecap="round" stroke-linejoin="round" stroke-width="4.000000"
	d="
M304.000000,470.500000 
	C298.864258,473.901550 296.288605,479.764679 291.500000,483.500000 
"/>
<path fill="none" opacity="1.000000" stroke="#000000" stroke-linecap="round" stroke-linejoin="round" stroke-width="4.000000"
	d="
M275.500000,437.000000 
	C271.987244,437.994263 269.725159,440.989441 266.571350,442.636627 
	C265.063324,443.424286 263.696167,444.274689 262.000000,444.500000 
"/>
<path fill="none" opacity="1.000000" stroke="#000000" stroke-linecap="round" stroke-linejoin="round" stroke-width="4.000000"
	d="
M634.500000,379.000000 
	C631.283264,381.580719 627.138550,381.247742 623.467590,382.396484 
	C622.351929,382.745605 621.783875,383.417542 621.000000,384.000000 
"/>
<path fill="none" opacity="1.000000" stroke="#000000" stroke-linecap="round" stroke-linejoin="round" stroke-width="3.000000"
	d="
M356.000000,140.750000 
	C352.379486,137.679443 348.947937,133.979080 343.500000,137.000000 
"/>
<path fill="none" opacity="1.000000" stroke="#000000" stroke-linecap="round" stroke-linejoin="round" stroke-width="4.000000"
	d="
M514.500000,503.000000 
	C516.833374,508.000000 519.166687,513.000000 521.500000,518.000000 
"/>
<path fill="none" opacity="1.000000" stroke="#000000" stroke-linecap="round" stroke-linejoin="round" stroke-width="3.000000"
	d="
M280.500000,199.500000 
	C285.154419,202.787186 288.194641,207.982086 293.500000,210.500000 
"/>
<path fill="none" opacity="1.000000" stroke="#000000" stroke-linecap="round" stroke-linejoin="round" stroke-width="3.000000"
	d="
M389.500000,130.500000 
	C385.126007,132.857651 380.003448,132.986832 375.588196,134.724106 
	C367.339813,137.969620 358.131653,139.038483 350.958374,144.949478 
	C349.789215,145.912933 347.658051,144.974121 346.500000,146.500000 
"/>
<path fill="none" opacity="1.000000" stroke="#000000" stroke-linecap="round" stroke-linejoin="round" stroke-width="4.000000"
	d="
M442.500000,125.000000 
	C438.802338,126.540070 434.837952,124.945229 430.900360,126.183029 
	C428.845215,126.829071 427.227112,123.513443 427.417297,120.494789 
	C427.577362,117.954193 427.888428,116.584274 430.993713,116.396210 
	C436.701294,116.050552 439.487885,119.815842 442.501404,123.498848 
	C443.325684,124.506241 444.166656,125.500008 445.000000,126.500008 
"/>
<path fill="none" opacity="1.000000" stroke="#000000" stroke-linecap="round" stroke-linejoin="round" stroke-width="4.000000"
	d="
M498.500000,146.500000 
	C498.715820,152.245193 500.329163,153.500000 507.500000,153.500000 
"/>
<path fill="none" opacity="1.000000" stroke="#000000" stroke-linecap="round" stroke-linejoin="round" stroke-width="3.000000"
	d="
M307.000000,171.000000 
	C303.079346,175.651749 297.419708,178.262512 293.431091,182.941254 
	C286.520721,191.047363 278.868683,198.526169 273.000000,207.500000 
"/>
<path fill="none" opacity="1.000000" stroke="#000000" stroke-linecap="round" stroke-linejoin="round" stroke-width="4.000000"
	d="
M351.000031,145.499985 
	C351.833344,147.333328 352.623779,149.187637 353.508026,150.996078 
	C356.229706,156.562729 358.364441,156.890778 363.039581,152.462494 
	C361.698029,148.821777 360.348999,145.160889 359.000000,141.500000 
"/>
<path fill="none" opacity="1.000000" stroke="#000000" stroke-linecap="round" stroke-linejoin="round" stroke-width="4.000000"
	d="
M524.500000,497.500000 
	C526.241516,501.636719 529.748047,505.067444 529.500000,510.000000 
"/>
<path fill="none" opacity="1.000000" stroke="#000000" stroke-linecap="round" stroke-linejoin="round" stroke-width="3.000000"
	d="
M248.000000,395.500000 
	C249.611984,397.703979 247.289703,398.754547 246.422958,399.943848 
	C244.090210,403.144684 241.819458,406.345490 240.250000,410.000000 
"/>
<path fill="none" opacity="1.000000" stroke="#000000" stroke-linecap="round" stroke-linejoin="round" stroke-width="4.000000"
	d="
M292.000000,198.500000 
	C295.968872,200.648392 300.435730,198.646637 304.500000,200.000000 
"/>
<path fill="none" opacity="1.000000" stroke="#000000" stroke-linecap="round" stroke-linejoin="round" stroke-width="4.000000"
	d="
M233.000000,392.000000 
	C237.724838,388.609283 243.222580,386.167084 247.461807,380.798553 
	C240.350220,378.589539 233.893692,379.093323 227.500000,379.000000 
"/>
<path fill="none" opacity="1.000000" stroke="#000000" stroke-linecap="round" stroke-linejoin="round" stroke-width="3.000000"
	d="
M516.500000,504.500000 
	C517.486938,504.745056 518.521912,504.097931 519.522095,504.974792 
	C523.345276,508.326691 528.277222,509.808350 532.500000,512.500000 
"/>
<path fill="none" opacity="1.000000" stroke="#000000" stroke-linecap="round" stroke-linejoin="round" stroke-width="4.000000"
	d="
M237.500000,334.000000 
	C232.486908,337.845703 228.448914,343.251587 221.500000,344.000000 
"/>
<path fill="none" opacity="1.000000" stroke="#000000" stroke-linecap="round" stroke-linejoin="round" stroke-width="4.000000"
	d="
M633.500000,397.000000 
	C628.929382,398.740173 624.528992,396.135681 619.997253,396.462250 
	C617.871338,396.615417 615.702209,396.308929 613.667236,398.332520 
	C617.091980,403.695374 623.880615,405.830994 627.000000,411.500000 
"/>
<path fill="none" opacity="1.000000" stroke="#000000" stroke-linecap="round" stroke-linejoin="round" stroke-width="4.000000"
	d="
M268.500000,427.500000 
	C263.166656,430.666687 257.833344,433.833344 252.500000,437.000000 
"/>
<path fill="none" opacity="1.000000" stroke="#000000" stroke-linecap="round" stroke-linejoin="round" stroke-width="4.000000"
	d="
M253.500000,393.000000 
	C247.457047,394.692780 241.245255,395.832947 235.500000,398.500000 
"/>
<path fill="none" opacity="1.000000" stroke="#000000" stroke-linecap="round" stroke-linejoin="round" stroke-width="3.000000"
	d="
M514.000000,142.000000 
	C511.642181,147.823547 508.336975,153.268127 507.000000,159.500000 
"/>
<path fill="none" opacity="1.000000" stroke="#000000" stroke-linecap="round" stroke-linejoin="round" stroke-width="3.000000"
	d="
M411.250000,126.000000 
	C407.560394,129.208069 402.605011,127.553230 398.454559,129.397720 
	C393.177551,131.742844 388.546478,130.700760 384.854187,125.605659 
	C383.711853,124.029312 381.003723,122.642403 378.500000,124.500000 
"/>
<path fill="none" opacity="1.000000" stroke="#000000" stroke-linecap="round" stroke-linejoin="round" stroke-width="4.000000"
	d="
M305.500000,182.000000 
	C304.199188,182.215454 303.396362,183.154709 302.489044,183.988083 
	C300.119598,186.164413 297.938171,188.819275 299.633759,191.927017 
	C301.398254,195.160965 304.916931,195.749207 308.500000,195.000000 
"/>
<path fill="none" opacity="1.000000" stroke="#000000" stroke-linecap="round" stroke-linejoin="round" stroke-width="4.000000"
	d="
M292.000000,461.000000 
	C288.166687,464.833344 284.333344,468.666687 280.500000,472.500000 
"/>
<path fill="none" opacity="1.000000" stroke="#000000" stroke-linecap="round" stroke-linejoin="round" stroke-width="4.000000"
	d="
M646.500000,320.000031 
	C642.689270,321.396912 638.878540,322.793793 634.948547,324.234406 
	C634.179810,326.456421 634.592712,328.995056 634.500000,331.500000 
"/>
<path fill="none" opacity="1.000000" stroke="#000000" stroke-linecap="round" stroke-linejoin="round" stroke-width="3.000000"
	d="
M576.000000,210.500000 
	C575.529724,214.719971 576.561218,218.264114 580.500000,220.500000 
"/>
<path fill="none" opacity="1.000000" stroke="#000000" stroke-linecap="round" stroke-linejoin="round" stroke-width="3.000000"
	d="
M475.000000,130.000000 
	C481.955292,129.113815 488.081757,132.350647 494.467926,134.116013 
	C497.045959,134.828659 500.475739,134.242432 502.000000,137.500000 
"/>
<path fill="none" opacity="1.000000" stroke="#000000" stroke-linecap="round" stroke-linejoin="round" stroke-width="4.000000"
	d="
M603.000000,452.500000 
	C597.693176,446.436401 590.922668,445.562042 583.500000,447.000000 
"/>
<path fill="none" opacity="1.000000" stroke="#000000" stroke-linecap="round" stroke-linejoin="round" stroke-width="4.000000"
	d="
M588.500000,195.500000 
	C583.395569,198.800400 579.911011,204.072845 574.500000,207.000000 
"/>
<path fill="none" opacity="1.000000" stroke="#000000" stroke-linecap="round" stroke-linejoin="round" stroke-width="4.000000"
	d="
M379.000031,134.999985 
	C379.362885,135.821625 379.725769,136.643280 380.087738,137.462906 
	C372.179993,140.805771 372.179993,140.805771 376.000000,144.500000 
"/>
<path fill="none" opacity="1.000000" stroke="#000000" stroke-linecap="round" stroke-linejoin="round" stroke-width="4.000000"
	d="
M565.000000,172.500000 
	C562.028748,177.595932 556.217957,180.179977 553.500000,185.500000 
"/>
<path fill="none" opacity="1.000000" stroke="#000000" stroke-linecap="round" stroke-linejoin="round" stroke-width="3.000000"
	d="
M598.750000,207.000000 
	C593.316223,210.180847 587.967896,213.480133 583.500000,218.000000 
"/>
<path fill="none" opacity="1.000000" stroke="#000000" stroke-linecap="round" stroke-linejoin="round" stroke-width="3.000000"
	d="
M537.000000,152.500015 
	C533.833374,157.833344 530.666687,163.166672 527.500000,168.500015 
"/>
<path fill="none" opacity="1.000000" stroke="#000000" stroke-linecap="round" stroke-linejoin="round" stroke-width="3.000000"
	d="
M483.500000,132.500000 
	C482.166656,137.500000 480.714294,142.473404 479.586945,147.519424 
	C479.318298,148.721741 478.668732,150.166672 479.500000,151.500000 
"/>
<path fill="none" opacity="1.000000" stroke="#000000" stroke-linecap="round" stroke-linejoin="round" stroke-width="5.000000"
	d="
M436.000000,238.500000 
	C436.000000,241.833328 436.000000,245.166672 436.000000,248.500000 
"/>
<path fill="none" opacity="1.000000" stroke="#000000" stroke-linecap="round" stroke-linejoin="round" stroke-width="3.000000"
	d="
M332.500000,154.000000 
	C324.307495,158.622131 316.481506,163.799911 309.000000,169.500000 
"/>
<path fill="none" opacity="1.000000" stroke="#000000" stroke-linecap="round" stroke-linejoin="round" stroke-width="3.000000"
	d="
M303.000000,176.500000 
	C306.131805,181.597595 310.009155,186.060104 314.500000,190.000000 
"/>
<path fill="none" opacity="1.000000" stroke="#000000" stroke-linecap="round" stroke-linejoin="round" stroke-width="4.000000"
	d="
M592.500000,436.500000 
	C593.350037,439.628052 595.480652,442.486542 594.500000,446.000000 
"/>
<path fill="none" opacity="1.000000" stroke="#000000" stroke-linecap="round" stroke-linejoin="round" stroke-width="4.000000"
	d="
M487.500000,140.500000 
	C489.637451,144.612671 488.996887,149.686981 492.000000,153.500000 
"/>
<path fill="none" opacity="1.000000" stroke="#000000" stroke-linecap="round" stroke-linejoin="round" stroke-width="3.000000"
	d="
M276.000000,214.500000 
	C277.903137,213.085297 278.356445,209.898636 281.630768,209.990295 
	C284.855591,211.081451 286.164062,214.892380 289.500000,216.000000 
"/>
<path fill="none" opacity="1.000000" stroke="#000000" stroke-linecap="round" stroke-linejoin="round" stroke-width="3.000000"
	d="
M624.500000,261.500000 
	C624.500000,264.666656 624.500000,267.833344 624.500000,271.000000 
"/>
<path fill="none" opacity="1.000000" stroke="#000000" stroke-linecap="round" stroke-linejoin="round" stroke-width="3.000000"
	d="
M608.500000,408.500000 
	C609.131592,411.304810 610.059326,414.011169 611.520691,416.487793 
	C612.481873,418.116577 611.945801,419.534027 611.250000,421.000000 
"/>
<path fill="none" opacity="1.000000" stroke="#000000" stroke-linecap="round" stroke-linejoin="round" stroke-width="4.000000"
	d="
M596.500000,214.500000 
	C596.307617,219.492645 592.700745,223.509735 592.500000,228.500000 
"/>
<path fill="none" opacity="1.000000" stroke="#000000" stroke-linecap="round" stroke-linejoin="round" stroke-width="4.000000"
	d="
M604.500000,419.000000 
	C610.428894,420.229523 614.450867,425.526978 620.500000,426.500000 
"/>
<path fill="none" opacity="1.000000" stroke="#000000" stroke-linecap="round" stroke-linejoin="round" stroke-width="4.000000"
	d="
M509.500000,513.000000 
	C506.500000,514.000000 503.500000,515.000000 500.500000,516.000000 
"/>
<path fill="none" opacity="1.000000" stroke="#000000" stroke-linecap="round" stroke-linejoin="round" stroke-width="3.000000"
	d="
M234.000000,380.000000 
	C234.593658,382.976746 234.988922,386.023529 237.000000,388.500000 
"/>
<path fill="none" opacity="1.000000" stroke="#000000" stroke-linecap="round" stroke-linejoin="round" stroke-width="4.000000"
	d="
M632.000000,368.500000 
	C634.676208,369.890503 637.348022,371.305634 640.500000,370.000000 
"/>
<path fill="none" opacity="1.000000" stroke="#000000" stroke-linecap="round" stroke-linejoin="round" stroke-width="3.000000"
	d="
M605.000000,216.500000 
	C602.382263,218.066437 600.618469,222.536179 596.500000,219.000000 
"/>
<path fill="none" opacity="1.000000" stroke="#000000" stroke-linecap="round" stroke-linejoin="round" stroke-width="4.000000"
	d="
M466.500000,137.500000 
	C470.125092,140.469635 470.974243,145.458130 474.500000,148.500000 
"/>
<path fill="none" opacity="1.000000" stroke="#000000" stroke-linecap="round" stroke-linejoin="round" stroke-width="4.000000"
	d="
M496.500000,509.500000 
	C498.500000,514.833313 500.500000,520.166687 502.500000,525.500000 
"/>
<path fill="none" opacity="1.000000" stroke="#000000" stroke-linecap="round" stroke-linejoin="round" stroke-width="4.000000"
	d="
M625.500000,416.000031 
	C621.166687,416.666687 616.833313,417.333374 612.500000,418.000031 
"/>
<path fill="none" opacity="1.000000" stroke="#000000" stroke-linecap="round" stroke-linejoin="round" stroke-width="3.000000"
	d="
M575.000000,198.500000 
	C575.496765,197.166672 574.696045,195.914856 574.844055,194.483871 
	C575.207336,190.972107 577.425232,191.554337 578.919800,192.613174 
	C580.989136,194.079147 582.500000,196.333328 584.250000,198.250000 
"/>
<path fill="none" opacity="1.000000" stroke="#000000" stroke-linecap="round" stroke-linejoin="round" stroke-width="4.000000"
	d="
M508.000000,503.500000 
	C506.954468,507.027130 509.433990,509.980591 510.395142,512.868469 
	C511.319885,515.647217 512.331238,519.020691 514.500000,521.500000 
"/>
<path fill="none" opacity="1.000000" stroke="#000000" stroke-linecap="round" stroke-linejoin="round" stroke-width="5.000000"
	d="
M289.000000,190.000000 
	C291.314758,191.769867 292.757477,193.977432 291.975677,196.993698 
	C291.063477,200.513306 287.611603,198.880722 285.500000,200.000000 
"/>
<path fill="none" opacity="1.000000" stroke="#000000" stroke-linecap="round" stroke-linejoin="round" stroke-width="3.000000"
	d="
M532.500000,158.000000 
	C530.934509,157.284576 529.895752,155.736084 528.005249,155.463669 
	C525.154663,155.052917 523.186096,155.428345 523.750000,159.000000 
"/>
<path fill="none" opacity="1.000000" stroke="#000000" stroke-linecap="round" stroke-linejoin="round" stroke-width="5.000000"
	d="
M335.500000,249.000000 
	C334.709290,251.531967 332.845886,253.273865 330.983643,254.982178 
	C329.913269,255.964081 329.150085,256.969086 329.500000,258.500000 
"/>
<path fill="none" opacity="1.000000" stroke="#000000" stroke-linecap="round" stroke-linejoin="round" stroke-width="3.000000"
	d="
M340.500000,497.000000 
	C345.277008,498.742584 349.484772,501.813293 354.500000,503.000000 
"/>
<path fill="none" opacity="1.000000" stroke="#000000" stroke-linecap="round" stroke-linejoin="round" stroke-width="3.000000"
	d="
M626.500000,398.000000 
	C626.727051,400.990814 624.878906,403.151550 623.500000,405.500000 
"/>
<path fill="none" opacity="1.000000" stroke="#000000" stroke-linecap="round" stroke-linejoin="round" stroke-width="4.000000"
	d="
M468.500000,127.500000 
	C470.954529,127.887451 474.504669,128.141281 474.231873,130.974182 
	C473.953217,133.867889 474.754272,138.575577 469.500000,139.000000 
"/>
<path fill="none" opacity="1.000000" stroke="#000000" stroke-linecap="round" stroke-linejoin="round" stroke-width="4.000000"
	d="
M453.500000,519.500000 
	C448.833344,519.500000 444.166656,519.500000 439.500000,519.500000 
"/>
<path fill="none" opacity="1.000000" stroke="#000000" stroke-linecap="round" stroke-linejoin="round" stroke-width="4.000000"
	d="
M407.000000,129.000000 
	C407.476135,131.466919 409.735657,134.330154 405.500000,135.750000 
"/>
<path fill="none" opacity="1.000000" stroke="#000000" stroke-linecap="round" stroke-linejoin="round" stroke-width="3.000000"
	d="
M502.750000,138.500000 
	C504.792999,141.731079 502.422577,143.667755 500.448639,145.442886 
	C498.960480,146.781158 497.583588,145.881714 493.494934,141.498337 
	C494.159882,139.497787 494.829926,137.498886 495.500000,135.500000 
"/>
<path fill="none" opacity="1.000000" stroke="#000000" stroke-linecap="round" stroke-linejoin="round" stroke-width="3.000000"
	d="
M621.500000,386.000000 
	C625.136963,388.411438 629.461731,388.464600 633.500000,389.500000 
"/>
<path fill="none" opacity="1.000000" stroke="#000000" stroke-linecap="round" stroke-linejoin="round" stroke-width="3.000000"
	d="
M431.500000,131.500000 
	C434.102692,131.781525 437.563507,129.384674 438.952148,133.516083 
	C440.156891,137.100403 440.017120,140.636765 437.000000,143.500000 
"/>
<path fill="none" opacity="1.000000" stroke="#000000" stroke-linecap="round" stroke-linejoin="round" stroke-width="3.000000"
	d="
M359.000000,156.000000 
	C358.750732,158.243362 357.851013,160.215698 356.500000,162.000000 
"/>
<path fill="none" opacity="1.000000" stroke="#000000" stroke-linecap="round" stroke-linejoin="round" stroke-width="4.000000"
	d="
M274.000000,215.000000 
	C272.796844,213.826416 271.752563,212.441025 269.750732,212.034698 
	C268.407257,213.762039 266.953644,215.631027 265.500031,217.500015 
"/>
<path fill="none" opacity="1.000000" stroke="#000000" stroke-linecap="round" stroke-linejoin="round" stroke-width="3.000000"
	d="
M363.000000,154.000000 
	C364.713898,155.443924 365.594879,157.342194 366.000000,159.500000 
"/>
<path fill="none" opacity="1.000000" stroke="#000000" stroke-linecap="round" stroke-linejoin="round" stroke-width="4.000000"
	d="
M288.500000,455.500000 
	C291.672180,458.678375 294.910645,461.797089 297.500000,465.500000 
"/>
<path fill="none" opacity="1.000000" stroke="#000000" stroke-linecap="round" stroke-linejoin="round" stroke-width="4.000000"
	d="
M309.000000,475.500000 
	C312.333344,478.000000 315.666687,480.500000 319.000000,483.000000 
"/>
<path fill="none" opacity="1.000000" stroke="#000000" stroke-linecap="round" stroke-linejoin="round" stroke-width="3.000000"
	d="
M429.500000,140.500000 
	C426.537537,141.016571 423.042633,142.501907 421.607300,138.461884 
	C420.578949,135.567352 421.881042,132.691132 424.543213,131.071014 
	C426.489166,129.886765 428.833344,130.235794 431.000000,131.000000 
"/>
<path fill="none" opacity="1.000000" stroke="#000000" stroke-linecap="round" stroke-linejoin="round" stroke-width="3.000000"
	d="
M469.500000,524.500000 
	C467.424561,525.395325 464.965485,524.628235 463.000000,526.000000 
"/>
<path fill="none" opacity="1.000000" stroke="#000000" stroke-linecap="round" stroke-linejoin="round" stroke-width="1.000000"
	d="
M403.000000,138.000000 
	C402.497162,138.822006 401.683167,138.399307 401.000000,138.500000 
"/>
<path fill="none" opacity="1.000000" stroke="#000000" stroke-linecap="round" stroke-linejoin="round" stroke-width="6.000000"
	d="
M420.500000,158.000000 
	C407.122070,159.738464 393.840485,161.833496 380.987396,166.213043 
	C359.008575,173.702057 339.389648,185.009476 321.924438,200.414337 
	C305.893616,214.553986 293.290070,231.154968 283.523773,250.012314 
	C273.770508,268.844482 268.270508,288.896881 265.896912,309.988403 
	C263.641266,330.031921 265.693085,349.664642 270.618378,368.969788 
	C276.066376,390.323608 285.672974,409.897919 299.035492,427.473022 
	C311.643677,444.055847 326.773438,457.956818 344.491913,469.012970 
	C367.648804,483.462616 392.795654,491.660614 419.994629,494.060822 
	C447.600464,496.496979 474.013672,491.721375 499.459137,481.399231 
	C512.948181,475.927307 525.585266,468.493744 536.909607,459.387573 
	C557.028076,443.209869 573.657288,423.900238 584.952576,400.477142 
	C596.050720,377.462891 601.937744,353.230774 602.107178,327.500702 
	C602.302124,297.893799 595.170715,270.290009 580.942139,244.531967 
	C566.337646,218.093445 545.834778,197.109924 519.972412,181.545868 
	C497.527405,168.038376 472.997772,160.506195 446.988647,158.124069 
	C438.394073,157.336914 429.666656,158.000000 421.000000,158.000000 
"/>
<path fill="none" opacity="1.000000" stroke="#000000" stroke-linecap="round" stroke-linejoin="round" stroke-width="4.000000"
	d="
M236.500000,350.500000 
	C234.863144,351.913940 232.882462,351.483795 230.999969,351.488281 
	C228.496964,351.494263 225.549835,351.466125 224.644150,354.050507 
	C223.656281,356.869507 225.218643,359.527222 227.504181,361.495148 
	C231.678818,365.089508 240.959824,362.296112 242.500015,357.000000 
	C243.613724,353.170471 241.497009,350.668945 237.000000,350.500000 
"/>
<path fill="none" opacity="1.000000" stroke="#000000" stroke-linecap="round" stroke-linejoin="round" stroke-width="4.000000"
	d="
M565.500000,467.500000 
	C561.776550,469.505676 560.456970,472.551758 562.035034,476.485962 
	C563.866028,481.050812 569.049927,484.230225 573.000000,483.500000 
	C577.213013,482.721100 579.046753,477.850830 576.451050,473.529419 
	C574.150269,469.699188 571.001099,466.873077 566.000000,467.500000 
"/>
<path fill="none" opacity="1.000000" stroke="#000000" stroke-linecap="round" stroke-linejoin="round" stroke-width="6.000000"
	d="
M425.500000,215.000000 
	C409.735382,216.951263 394.456512,220.587250 380.510529,228.518509 
	C363.081360,238.430725 348.805908,251.533234 338.400055,268.940247 
	C330.381134,282.354370 325.230347,296.641602 323.319397,312.008636 
	C319.554718,342.282654 327.113037,369.693420 345.541901,393.968201 
	C355.243744,406.747650 367.271149,417.065186 381.536133,424.429993 
	C396.991882,432.409515 413.324097,436.886414 430.997223,437.171692 
	C450.774292,437.490936 469.161377,433.299500 486.500916,424.001709 
	C504.041351,414.596222 517.984619,401.271057 528.438293,384.461639 
	C539.812866,366.171326 545.345276,346.079285 544.974426,324.500427 
	C544.553528,300.012054 536.759155,277.925018 521.933472,258.550903 
	C505.636810,237.254562 484.036804,223.754059 457.986908,217.555054 
	C447.503448,215.060349 436.762878,214.601990 426.000000,215.000000 
"/>
<path fill="none" opacity="1.000000" stroke="#000000" stroke-linecap="round" stroke-linejoin="round" stroke-width="4.000000"
	d="
M394.000000,515.500000 
	C388.235443,517.551147 387.234863,522.074463 387.423431,527.502686 
	C387.522766,530.362915 388.559143,532.664795 391.041321,533.350464 
	C393.264954,533.964783 395.852264,533.904663 398.035645,532.041809 
	C401.408905,529.163757 402.280457,525.467651 401.400787,521.522095 
	C400.645203,518.133362 398.433350,515.633301 394.500000,515.500000 
"/>
<path fill="none" opacity="1.000000" stroke="#000000" stroke-linecap="round" stroke-linejoin="round" stroke-width="3.000000"
	d="
M536.500000,489.500000 
	C533.364624,491.522705 531.753174,494.029572 532.946533,498.016022 
	C534.289551,502.502533 537.274536,505.265533 541.524414,506.409210 
	C544.837769,507.300842 549.378357,502.394073 548.442566,499.015900 
	C546.570190,492.256714 542.689819,488.261444 537.000000,489.500000 
"/>
<path fill="none" opacity="1.000000" stroke="#000000" stroke-linecap="round" stroke-linejoin="round" stroke-width="8.000000"
	d="
M421.000000,98.000000 
	C410.334442,99.507843 399.597992,100.283028 388.980469,102.402176 
	C350.352997,110.111786 316.044098,126.823761 286.079681,152.094467 
	C257.207703,176.443802 235.705399,206.466125 221.564453,241.526001 
	C212.588211,263.780884 207.622986,286.967834 205.882141,310.991455 
	C203.316086,346.403198 209.270859,380.261841 222.516373,412.993378 
	C231.589844,435.415192 244.329147,455.561188 259.940826,474.049957 
	C280.382965,498.259369 304.954468,517.243896 333.084869,531.330566 
	C356.132019,542.871643 380.806610,550.009033 406.504883,552.957458 
	C434.471710,556.166077 462.160767,554.537598 489.506012,547.523438 
	C522.979553,538.937317 552.923157,523.673523 579.554810,501.566040 
	C604.831665,480.583160 624.476624,455.340668 638.988525,425.994324 
	C650.709045,402.292603 658.086121,377.202515 660.867432,350.985931 
	C664.023560,321.236359 661.535461,291.835388 653.046814,262.986237 
	C643.666443,231.106796 628.240173,202.665649 606.546631,177.459854 
	C578.307495,144.648651 543.528320,121.844467 502.484741,108.547104 
	C476.184418,100.026299 449.081146,97.016815 421.500000,98.000000 
"/>
</svg>