<svg version="1.1" id="Layer_1" xmlns="http://www.w3.org/2000/svg" xmlns:xlink="http://www.w3.org/1999/xlink" x="0px" y="0px"
	 width="100%" viewBox="0 0 310 162" enable-background="new 0 0 310 162" xml:space="preserve">
<path fill="#FEFFFF" opacity="1.000000" stroke="none" 
	d="
M217.000000,163.000000 
	C144.666672,163.000000 72.833351,163.000000 1.000019,163.000000 
	C1.000013,109.000015 1.000013,55.000031 1.000006,1.000034 
	C104.333305,1.000023 207.666611,1.000023 310.999939,1.000011 
	C310.999939,54.999966 310.999939,108.999931 310.999969,162.999939 
	C279.833344,163.000000 248.666672,163.000000 217.000000,163.000000 
M74.441971,68.031189 
	C74.305519,68.355942 74.169067,68.680702 73.568436,69.531204 
	C70.270737,76.978104 66.973038,84.425003 63.675339,91.871902 
	C63.250332,91.772247 62.825329,91.672585 62.400322,91.572922 
	C62.400322,83.726021 62.400322,75.879120 62.400322,67.528397 
	C54.338127,67.528397 46.874016,67.363960 39.431610,67.691917 
	C38.205841,67.745934 36.339897,69.790924 36.014885,71.202469 
	C32.892303,84.763931 30.036982,98.386940 27.080824,112.804756 
	C31.868111,113.224007 36.655399,113.643257 41.574871,114.074089 
	C42.015697,111.851257 42.299946,110.417961 42.855007,108.212379 
	C44.757465,99.530968 46.659927,90.849548 48.562386,82.168137 
	C49.204941,82.225128 49.847496,82.282120 50.490051,82.339111 
	C50.490051,92.678673 50.490051,103.018234 50.490051,113.755280 
	C54.377590,113.755280 57.212551,113.467934 59.964825,113.822487 
	C64.113609,114.356926 66.191788,112.616798 67.793907,108.890167 
	C71.200134,100.967072 75.037354,93.228127 78.757446,85.442146 
	C79.439461,84.014748 80.403091,82.721909 81.850060,80.370056 
	C79.325836,92.219513 77.078506,102.769127 74.722626,113.828331 
	C79.584282,113.828331 83.578323,114.072182 87.511276,113.688980 
	C88.794876,113.563911 90.718384,111.985970 90.994286,110.766052 
	C94.136032,96.874695 97.015198,82.923950 100.006889,68.414787 
	C99.674454,68.285416 99.342010,68.156044 98.086273,67.842926 
	C90.389206,67.899506 82.692139,67.956093 74.441971,68.031189 
M202.268784,79.979279 
	C192.521652,79.500801 182.774506,79.022324 173.027374,78.543839 
	C172.960190,79.026733 172.893005,79.509628 172.825821,79.992523 
	C176.722763,82.789421 180.555557,85.681816 184.535934,88.354454 
	C188.024094,90.696602 188.669083,93.705292 187.306213,97.444283 
	C184.701248,104.590889 178.508179,106.464722 172.406921,101.903152 
	C167.694244,98.379730 163.014252,94.812584 158.191269,91.167816 
	C152.583008,103.568695 159.822952,114.649269 172.507095,114.375130 
	C179.839890,114.216644 187.174622,114.148064 194.507446,113.990700 
	C196.243805,113.953430 197.975983,113.721893 199.231918,113.618919 
	C201.420944,103.332184 203.458939,93.761078 205.493607,84.189247 
	C205.930008,82.136230 207.085632,79.681915 202.268784,79.979279 
M243.934586,112.668060 
	C252.443512,116.113571 261.070953,115.764565 269.648956,113.151413 
	C275.783539,111.282608 279.102478,107.049469 279.012970,101.711029 
	C278.911438,95.655533 274.037323,94.540932 269.689056,92.906502 
	C267.188843,91.966721 264.709167,90.972229 260.957703,89.510384 
	C267.515808,84.868370 273.045349,88.207283 278.209564,88.122093 
	C281.434601,81.453644 281.452209,79.959488 277.747559,79.250099 
	C269.478973,77.666794 261.191986,77.612747 253.358475,81.384132 
	C248.933426,83.514534 246.487976,86.980255 246.792755,92.116974 
	C247.085968,97.058678 250.707245,98.651466 254.562393,100.045479 
	C257.385651,101.066353 260.219818,102.057068 263.049133,103.061226 
	C257.014984,107.782745 251.276550,106.242737 245.095490,103.599373 
	C244.499084,106.665092 243.975723,109.355263 243.934586,112.668060 
M232.630997,88.943031 
	C234.422882,88.858597 236.322968,88.352272 237.983963,88.778236 
	C241.360886,89.644249 243.071960,88.389534 243.808090,85.252205 
	C244.212616,83.528046 244.544067,81.786751 244.898010,80.102982 
	C238.414993,77.871147 236.376785,77.928635 222.037277,80.619759 
	C213.306396,82.258301 206.901947,91.404305 207.372223,101.562523 
	C207.744797,109.610313 213.080444,114.160477 223.127243,114.871986 
	C225.279877,115.024437 227.466125,114.987259 229.618317,114.810883 
	C238.261154,114.102570 239.609314,112.455147 239.162827,103.474205 
	C237.400208,103.929398 235.489182,104.105629 233.887665,104.903282 
	C230.666321,106.507721 228.249222,104.706596 226.850586,102.634926 
	C225.655746,100.865112 225.003235,97.638809 225.829971,95.852386 
	C227.042709,93.231903 229.788498,91.320900 232.630997,88.943031 
M145.108246,92.768585 
	C145.395432,86.845421 150.608231,89.928291 154.211777,88.135406 
	C147.220703,82.851685 140.765259,77.972786 135.395676,73.914558 
	C131.619522,76.980652 129.002167,79.105850 126.384804,81.231041 
	C126.021614,80.900192 125.658432,80.569344 125.295242,80.238495 
	C124.810654,82.931671 124.326057,85.624855 123.813721,88.472221 
	C125.844742,88.829376 127.400429,89.102951 129.177109,89.415390 
	C128.156693,94.237701 127.057732,98.753677 126.271217,103.323425 
	C125.334183,108.767677 127.243835,113.288177 131.436050,113.760757 
	C136.424896,114.323128 141.696838,114.182129 146.554443,113.070877 
	C148.145386,112.706917 149.038071,108.415894 149.741135,105.784775 
	C149.881439,105.259697 147.579117,104.234474 146.631622,103.225342 
	C145.583206,102.108742 144.197113,100.815392 144.041245,99.473236 
	C143.821442,97.580536 144.597046,95.572250 145.108246,92.768585 
M117.989220,98.502632 
	C119.237862,92.420235 120.486504,86.337837 121.820534,79.839523 
	C115.955055,79.839523 110.691566,79.839523 105.266861,79.839523 
	C104.065727,85.412956 102.849327,91.051155 101.635796,96.689980 
	C100.434364,102.272591 99.235847,107.855820 97.995522,113.627380 
	C103.933022,113.627380 109.206017,113.627380 114.538094,113.627380 
	C115.677994,108.693588 116.759209,104.013817 117.989220,98.502632 
M112.477173,56.776272 
	C114.897255,60.161736 118.347237,61.655632 122.042107,59.999611 
	C124.330948,58.973774 126.633339,56.620228 127.595161,54.307652 
	C129.062241,50.780220 127.749481,46.666771 124.229050,45.414173 
	C121.276367,44.363586 116.981728,44.505238 114.277878,45.965004 
	C110.613457,47.943371 110.170647,52.132080 112.477173,56.776272 
z"/>
<path fill="#1DA4DD" opacity="1.000000" stroke="none" 
	d="
M99.964539,68.989075 
	C97.015198,82.923950 94.136032,96.874695 90.994286,110.766052 
	C90.718384,111.985970 88.794876,113.563911 87.511276,113.688980 
	C83.578323,114.072182 79.584282,113.828331 74.722626,113.828331 
	C77.078506,102.769127 79.325836,92.219513 81.850060,80.370056 
	C80.403091,82.721909 79.439461,84.014748 78.757446,85.442146 
	C75.037354,93.228127 71.200134,100.967072 67.793907,108.890167 
	C66.191788,112.616798 64.113609,114.356926 59.964825,113.822487 
	C57.212551,113.467934 54.377590,113.755280 50.490051,113.755280 
	C50.490051,103.018234 50.490051,92.678673 50.490051,82.339111 
	C49.847496,82.282120 49.204941,82.225128 48.562386,82.168137 
	C46.659927,90.849548 44.757465,99.530968 42.383827,108.713509 
	C40.252872,110.148102 38.669872,111.655876 36.916634,111.890259 
	C33.699085,112.320412 30.381184,111.999893 27.105118,111.992325 
	C30.036982,98.386940 32.892303,84.763931 36.014885,71.202469 
	C36.339897,69.790924 38.205841,67.745934 39.431610,67.691917 
	C46.874016,67.363960 54.338127,67.528397 62.400322,67.528397 
	C62.400322,75.879120 62.400322,83.726021 62.400322,91.572922 
	C62.825329,91.672585 63.250332,91.772247 63.675339,91.871902 
	C66.973038,84.425003 70.270737,76.978104 74.016388,69.163269 
	C74.732124,68.596077 74.909035,68.335190 74.995071,68.012672 
	C82.692139,67.956093 90.389206,67.899506 98.645248,68.149742 
	C99.393120,68.726219 99.646553,68.903725 99.964539,68.989075 
z"/>
<path fill="#1DA4DD" opacity="1.000000" stroke="none" 
	d="
M202.734222,79.980118 
	C207.085632,79.681915 205.930008,82.136230 205.493607,84.189247 
	C203.458939,93.761078 201.420944,103.332184 199.231918,113.618919 
	C197.975983,113.721893 196.243805,113.953430 194.507446,113.990700 
	C187.174622,114.148064 179.839890,114.216644 172.507095,114.375130 
	C159.822952,114.649269 152.583008,103.568695 158.191269,91.167816 
	C163.014252,94.812584 167.694244,98.379730 172.406921,101.903152 
	C178.508179,106.464722 184.701248,104.590889 187.306213,97.444283 
	C188.669083,93.705292 188.024094,90.696602 184.535934,88.354454 
	C180.555557,85.681816 176.722763,82.789421 172.825821,79.992523 
	C172.893005,79.509628 172.960190,79.026733 173.027374,78.543839 
	C182.774506,79.022324 192.521652,79.500801 202.734222,79.980118 
z"/>
<path fill="#1EA4DD" opacity="1.000000" stroke="none" 
	d="
M243.693481,112.356750 
	C243.975723,109.355263 244.499084,106.665092 245.095490,103.599373 
	C251.276550,106.242737 257.014984,107.782745 263.049133,103.061226 
	C260.219818,102.057068 257.385651,101.066353 254.562393,100.045479 
	C250.707245,98.651466 247.085968,97.058678 246.792755,92.116974 
	C246.487976,86.980255 248.933426,83.514534 253.358475,81.384132 
	C261.191986,77.612747 269.478973,77.666794 277.747559,79.250099 
	C281.452209,79.959488 281.434601,81.453644 278.209564,88.122093 
	C273.045349,88.207283 267.515808,84.868370 260.957703,89.510384 
	C264.709167,90.972229 267.188843,91.966721 269.689056,92.906502 
	C274.037323,94.540932 278.911438,95.655533 279.012970,101.711029 
	C279.102478,107.049469 275.783539,111.282608 269.648956,113.151413 
	C261.070953,115.764565 252.443512,116.113571 243.693481,112.356750 
z"/>
<path fill="#1DA4DD" opacity="1.000000" stroke="none" 
	d="
M232.256027,89.025314 
	C229.788498,91.320900 227.042709,93.231903 225.829971,95.852386 
	C225.003235,97.638809 225.655746,100.865112 226.850586,102.634926 
	C228.249222,104.706596 230.666321,106.507721 233.887665,104.903282 
	C235.489182,104.105629 237.400208,103.929398 239.162827,103.474205 
	C239.609314,112.455147 238.261154,114.102570 229.618317,114.810883 
	C227.466125,114.987259 225.279877,115.024437 223.127243,114.871986 
	C213.080444,114.160477 207.744797,109.610313 207.372223,101.562523 
	C206.901947,91.404305 213.306396,82.258301 222.037277,80.619759 
	C236.376785,77.928635 238.414993,77.871147 244.898010,80.102982 
	C244.544067,81.786751 244.212616,83.528046 243.808090,85.252205 
	C243.071960,88.389534 241.360886,89.644249 237.983963,88.778236 
	C236.322968,88.352272 234.422882,88.858597 232.256027,89.025314 
z"/>
<path fill="#1EA4DD" opacity="1.000000" stroke="none" 
	d="
M145.027649,93.190979 
	C144.597046,95.572250 143.821442,97.580536 144.041245,99.473236 
	C144.197113,100.815392 145.583206,102.108742 146.631622,103.225342 
	C147.579117,104.234474 149.881439,105.259697 149.741135,105.784775 
	C149.038071,108.415894 148.145386,112.706917 146.554443,113.070877 
	C141.696838,114.182129 136.424896,114.323128 131.436050,113.760757 
	C127.243835,113.288177 125.334183,108.767677 126.271217,103.323425 
	C127.057732,98.753677 128.156693,94.237701 129.177109,89.415390 
	C127.400429,89.102951 125.844742,88.829376 123.813721,88.472221 
	C124.326057,85.624855 124.810654,82.931671 125.295242,80.238495 
	C125.658432,80.569344 126.021614,80.900192 126.384804,81.231041 
	C129.002167,79.105850 131.619522,76.980652 135.395676,73.914558 
	C140.765259,77.972786 147.220703,82.851685 154.211777,88.135406 
	C150.608231,89.928291 145.395432,86.845421 145.027649,93.190979 
z"/>
<path fill="#1FA4DD" opacity="1.000000" stroke="none" 
	d="
M117.914818,98.918335 
	C116.759209,104.013817 115.677994,108.693588 114.538094,113.627380 
	C109.206017,113.627380 103.933022,113.627380 97.995522,113.627380 
	C99.235847,107.855820 100.434364,102.272591 101.635796,96.689980 
	C102.849327,91.051155 104.065727,85.412956 105.266861,79.839523 
	C110.691566,79.839523 115.955055,79.839523 121.820534,79.839523 
	C120.486504,86.337837 119.237862,92.420235 117.914818,98.918335 
z"/>
<path fill="#1FA4DD" opacity="1.000000" stroke="none" 
	d="
M112.284302,56.443939 
	C110.170647,52.132080 110.613457,47.943371 114.277878,45.965004 
	C116.981728,44.505238 121.276367,44.363586 124.229050,45.414173 
	C127.749481,46.666771 129.062241,50.780220 127.595161,54.307652 
	C126.633339,56.620228 124.330948,58.973774 122.042107,59.999611 
	C118.347237,61.655632 114.897255,60.161736 112.284302,56.443939 
z"/>
<path fill="#29ABE0" opacity="1.000000" stroke="none" 
	d="
M27.092972,112.398544 
	C30.381184,111.999893 33.699085,112.320412 36.916634,111.890259 
	C38.669872,111.655876 40.252872,110.148102 42.248425,109.099648 
	C42.299946,110.417961 42.015697,111.851257 41.574871,114.074089 
	C36.655399,113.643257 31.868111,113.224007 27.092972,112.398544 
z"/>
<path fill="#009EDB" opacity="1.000000" stroke="none" 
	d="
M74.718521,68.021927 
	C74.909035,68.335190 74.732124,68.596077 74.248482,68.900391 
	C74.169067,68.680702 74.305519,68.355942 74.718521,68.021927 
z"/>
<path fill="#009EDB" opacity="1.000000" stroke="none" 
	d="
M99.985718,68.701935 
	C99.646553,68.903725 99.393120,68.726219 99.106903,68.241615 
	C99.342010,68.156044 99.674454,68.285416 99.985718,68.701935 
z"/>
</svg>