<?xml version="1.0" standalone="no"?>
<!DOCTYPE svg PUBLIC "-//W3C//DTD SVG 20010904//EN"
 "http://www.w3.org/TR/2001/REC-SVG-20010904/DTD/svg10.dtd">
<svg version="1.0" xmlns="http://www.w3.org/2000/svg"
 width="200.000000pt" height="200.000000pt" viewBox="0 0 200.000000 200.000000"
 preserveAspectRatio="xMidYMid meet">

<g transform="translate(0.000000,200.000000) scale(0.100000,-0.100000)"
fill="#000000" stroke="none">
<path d="M0 1000 l0 -1000 1000 0 1000 0 0 1000 0 1000 -1000 0 -1000 0 0
-1000z m341 110 c27 -15 26 -60 -2 -60 -12 0 -27 7 -34 17 -14 19 -48 11 -39
-9 3 -7 26 -26 52 -43 38 -24 48 -36 50 -62 9 -88 -138 -102 -163 -15 -6 20
-3 22 29 22 29 0 36 -4 36 -20 0 -13 7 -20 20 -20 39 0 23 37 -30 69 -44 27
-50 35 -50 65 0 25 7 39 22 50 26 18 80 21 109 6z m737 -6 c29 -20 29 -54 1
-54 -12 0 -27 7 -34 17 -14 19 -47 11 -39 -10 3 -8 23 -24 45 -36 46 -26 64
-58 55 -96 -17 -65 -156 -56 -156 11 0 20 5 24 30 24 24 0 30 -4 30 -21 0 -14
5 -19 17 -17 36 7 25 35 -26 67 -45 27 -51 35 -51 65 0 41 28 66 75 66 17 0
41 -7 53 -16z m690 -1 c32 -28 32 -57 1 -61 -20 -2 -28 2 -32 18 -4 14 -12 21
-24 18 -15 -3 -19 -15 -21 -72 -3 -73 4 -91 31 -80 21 8 22 50 2 58 -31 11
-14 26 31 26 l46 0 -6 -47 c-7 -60 -25 -78 -81 -78 -67 0 -80 18 -80 116 0 73
2 83 24 100 29 24 82 25 109 2z m-1214 -15 c14 -62 36 -181 36 -189 0 -5 -13
-9 -29 -9 -28 0 -29 3 -40 63 -6 35 -11 73 -11 85 0 11 -4 23 -9 26 -5 3 -12
-22 -15 -57 -13 -112 -15 -117 -47 -117 -17 0 -29 5 -29 13 0 13 29 174 36
195 2 7 22 12 53 12 44 0 51 -3 55 -22z m191 -35 c12 -99 21 -104 34 -20 l12
77 50 0 49 0 0 -110 0 -110 -30 0 -30 0 -1 88 -1 87 -17 -85 c-17 -83 -18 -85
-48 -88 l-30 -3 -14 80 c-7 45 -17 81 -21 81 -5 0 -8 -12 -7 -27 1 -16 1 -52
1 -80 -2 -49 -4 -53 -27 -53 l-25 0 0 110 0 110 49 0 49 0 7 -57z m477 -35 c2
-75 6 -93 18 -93 12 0 16 18 18 93 l3 92 29 0 30 0 0 -95 c0 -83 -3 -98 -21
-116 -18 -18 -30 -20 -67 -16 -64 7 -72 22 -72 134 l0 93 30 0 29 0 3 -92z
m268 20 c12 -40 23 -77 25 -83 2 -5 4 27 4 73 l1 82 28 0 27 0 -3 -110 -3
-110 -38 0 -38 0 -26 83 -26 82 0 -82 -1 -83 -30 0 -30 0 0 110 0 110 45 0 44
0 21 -72z"/>
</g>
</svg>
